<svg xmlns="http://www.w3.org/2000/svg" width="56" height="49" viewBox="0 0 56 49" fill="none"><g clip-path="url(#clip0_72_1149)"><path d="M50.6356 49H5.3644C2.40621 49 0 46.6794 0 43.8265V10.0936C0 7.24065 2.40621 4.92004 5.3644 4.92004H7.47909C7.94026 4.92004 8.31541 5.28185 8.31541 5.72661C8.31541 6.17137 7.94026 6.53317 7.47909 6.53317H5.3644C3.32855 6.53317 1.67264 8.13017 1.67264 10.0936V43.8265C1.67264 45.7899 3.32855 47.3869 5.3644 47.3869H50.6356C52.6714 47.3869 54.3274 45.7899 54.3274 43.8265V10.0936C54.3274 8.13017 52.6714 6.53317 50.6356 6.53317H48.7909C48.3298 6.53317 47.9546 6.17137 47.9546 5.72661C47.9546 5.28185 48.3298 4.92004 48.7909 4.92004H50.6356C53.5938 4.92004 56 7.24065 56 10.0936V43.8265C56 46.6794 53.5938 49 50.6356 49Z" fill="#003D4C"></path><path d="M34.6424 6.53317H21.1537C20.6925 6.53317 20.3174 6.17137 20.3174 5.72661C20.3174 5.28185 20.6925 4.92004 21.1537 4.92004H34.6424C35.1035 4.92004 35.4787 5.28185 35.4787 5.72661C35.4787 6.17137 35.1035 6.53317 34.6424 6.53317Z" fill="#003D4C"></path><path d="M55.1637 15.5183H0.83632C0.375149 15.5183 0 15.1565 0 14.7117C0 14.267 0.375149 13.9052 0.83632 13.9052H55.1637C55.6249 13.9052 56 14.267 56 14.7117C56 15.1565 55.6249 15.5183 55.1637 15.5183Z" fill="#003D4C"></path><path d="M14.4894 11.4532H14.2815C11.9446 11.4532 10.0449 9.62117 10.0449 7.3674V4.08583C10.0449 1.83206 11.9446 0 14.2815 0H14.4894C16.8263 0 18.7259 1.83206 18.7259 4.08583V7.3674C18.7259 9.62117 16.8263 11.4532 14.4894 11.4532ZM14.2815 1.61313C12.8669 1.61313 11.7176 2.72158 11.7176 4.08583V7.3674C11.7176 8.73165 12.8669 9.8401 14.2815 9.8401H14.4894C15.9039 9.8401 17.0533 8.73165 17.0533 7.3674V4.08583C17.0533 2.72158 15.9039 1.61313 14.4894 1.61313H14.2815Z" fill="#003D4C"></path><path d="M41.7179 11.4532H41.51C39.1731 11.4532 37.2734 9.62117 37.2734 7.3674V4.08583C37.2734 1.83206 39.1731 0 41.51 0H41.7179C44.0548 0 45.9544 1.83206 45.9544 4.08583V7.3674C45.9544 9.62117 44.0548 11.4532 41.7179 11.4532ZM41.5076 1.61313C40.093 1.61313 38.9437 2.72158 38.9437 4.08583V7.3674C38.9437 8.73165 40.093 9.8401 41.5076 9.8401H41.7155C43.1301 9.8401 44.2794 8.73165 44.2794 7.3674V4.08583C44.2794 2.72158 43.1301 1.61313 41.7155 1.61313H41.5076Z" fill="#003D4C"></path><path d="M10.5763 26.748C10.3541 26.748 10.1414 26.6627 9.98372 26.5106L8.06974 24.6648C7.74238 24.3491 7.74238 23.8398 8.06974 23.5241C8.3971 23.2083 8.92517 23.2083 9.25253 23.5241L10.4951 24.7224L14.5381 19.6825C14.82 19.3299 15.3457 19.2654 15.7113 19.5373C16.0769 19.8092 16.1438 20.3162 15.8619 20.6688L11.2382 26.4346C11.09 26.619 10.8702 26.7319 10.6289 26.7457C10.6122 26.7457 10.593 26.7457 10.5763 26.7457V26.748Z" fill="#003D4C"></path><path d="M14.9563 29.8106H6.00527C5.54409 29.8106 5.16895 29.4488 5.16895 29.0041V19.936C5.16895 19.4912 5.54409 19.1294 6.00527 19.1294H11.5513C12.0124 19.1294 12.3876 19.4912 12.3876 19.936C12.3876 20.3807 12.0124 20.7425 11.5513 20.7425H6.84159V28.1975H14.1176V26.4737C14.1176 26.029 14.4927 25.6672 14.9539 25.6672C15.4151 25.6672 15.7902 26.029 15.7902 26.4737V29.0041C15.7902 29.4488 15.4151 29.8106 14.9539 29.8106H14.9563Z" fill="#003D4C"></path><path d="M32.1053 29.8106H23.1566C22.6955 29.8106 22.3203 29.4488 22.3203 29.0041V19.936C22.3203 19.4912 22.6955 19.1294 23.1566 19.1294H32.1053C32.5664 19.1294 32.9416 19.4912 32.9416 19.936V29.0041C32.9416 29.4488 32.5664 29.8106 32.1053 29.8106ZM23.993 28.1975H31.2689V20.7425H23.993V28.1975Z" fill="#003D4C"></path><path d="M15.2239 43.3264H6.27284C5.81167 43.3264 5.43652 42.9646 5.43652 42.5198V33.4517C5.43652 33.0069 5.81167 32.6451 6.27284 32.6451H15.2215C15.6826 32.6451 16.0578 33.0069 16.0578 33.4517V42.5198C16.0578 42.9646 15.6826 43.3264 15.2215 43.3264H15.2239ZM7.10916 41.7132H14.3851V34.2583H7.10916V41.7132Z" fill="#003D4C"></path><path d="M48.989 43.3264H40.0404C39.5793 43.3264 39.2041 42.9646 39.2041 42.5198V33.4517C39.2041 33.0069 39.5793 32.6451 40.0404 32.6451H48.989C49.4502 32.6451 49.8254 33.0069 49.8254 33.4517V42.5198C49.8254 42.9646 49.4502 43.3264 48.989 43.3264ZM40.8744 41.7132H48.1503V34.2583H40.8744V41.7132Z" fill="#003D4C"></path><path d="M44.4874 26.748C44.2652 26.748 44.0526 26.6627 43.8948 26.5106L41.9809 24.6648C41.6535 24.3491 41.6535 23.8398 41.9809 23.5241C42.3082 23.2083 42.8363 23.2083 43.1637 23.5241L44.4062 24.7224L48.4492 19.6825C48.7312 19.3299 49.2569 19.2654 49.6224 19.5373C49.988 19.8092 50.0549 20.3162 49.773 20.6688L45.1493 26.4346C45.0012 26.6167 44.7813 26.7319 44.54 26.7457C44.5233 26.7457 44.5042 26.7457 44.4874 26.7457V26.748Z" fill="#003D4C"></path><path d="M48.867 29.8106H39.9184C39.4572 29.8106 39.082 29.4488 39.082 29.0041V19.936C39.082 19.4912 39.4572 19.1294 39.9184 19.1294H45.4644C45.9255 19.1294 46.3007 19.4912 46.3007 19.936C46.3007 20.3807 45.9255 20.7425 45.4644 20.7425H40.7547V28.1975H48.0307V26.4737C48.0307 26.029 48.4058 25.6672 48.867 25.6672C49.3281 25.6672 49.7033 26.029 49.7033 26.4737V29.0041C49.7033 29.4488 49.3281 29.8106 48.867 29.8106Z" fill="#003D4C"></path><path d="M27.6037 40.2638C27.3814 40.2638 27.1688 40.1785 27.0111 40.0264L25.0971 38.1805C24.7697 37.8648 24.7697 37.3555 25.0971 37.0398C25.4244 36.7241 25.9525 36.7241 26.2799 37.0398L27.5224 38.2381L31.5654 33.1982C31.8474 32.8457 32.3731 32.7811 32.7387 33.0531C33.1043 33.325 33.1712 33.832 32.8892 34.1846L28.2655 39.9503C28.1174 40.1324 27.8976 40.2476 27.6562 40.2615C27.6395 40.2615 27.6204 40.2615 27.6037 40.2615V40.2638Z" fill="#003D4C"></path><path d="M31.9832 43.3264H23.0346C22.5734 43.3264 22.1982 42.9646 22.1982 42.5198V33.4517C22.1982 33.0069 22.5734 32.6451 23.0346 32.6451H28.5806C29.0417 32.6451 29.4169 33.0069 29.4169 33.4517C29.4169 33.8965 29.0417 34.2583 28.5806 34.2583H23.8709V41.7132H31.1469V39.9895C31.1469 39.5447 31.522 39.1829 31.9832 39.1829C32.4444 39.1829 32.8195 39.5447 32.8195 39.9895V42.5198C32.8195 42.9646 32.4444 43.3264 31.9832 43.3264Z" fill="#003D4C"></path></g><defs><clipPath id="clip0_72_1149"><rect width="56" height="49" fill="white"></rect></clipPath></defs></svg>