<svg xmlns="http://www.w3.org/2000/svg" width="60" height="72" viewBox="0 0 60 72" fill="none"><g clip-path="url(#clip0_72_1228)"><path d="M11.3947 40.3271C11.2298 40.3271 11.0649 40.2579 10.952 40.1223C10.408 39.4761 9.89878 38.7924 9.43582 38.0827L2.9717 39.6953C2.67946 39.7675 2.38142 39.6059 2.28304 39.3232L0.0318855 32.7746C-0.0664942 32.4919 0.0695012 32.1803 0.347279 32.0591L6.24427 29.4685C5.93466 27.1347 6.02436 24.7922 6.51626 22.4901L0.801561 19.0716C0.544038 18.9187 0.448552 18.5927 0.578761 18.3244L3.63142 12.1075C3.76452 11.8393 4.07992 11.7152 4.36059 11.8248L10.3675 14.15C11.8027 12.2806 13.5301 10.6882 15.5093 9.40733L13.8918 2.96258C13.8195 2.67121 13.9815 2.37407 14.2651 2.27599L20.8305 0.0315763C21.1141 -0.0665085 21.4266 0.0690793 21.5481 0.34314L24.1465 6.22246C26.4873 5.91378 28.8369 6.00321 31.1459 6.49363L34.5747 0.796061C34.7281 0.539309 35.055 0.444109 35.3241 0.573927L41.5597 3.61744C41.8288 3.75014 41.9532 4.06459 41.8432 4.34442L39.5111 10.3334C41.3861 11.7642 42.9833 13.4865 44.268 15.4597L50.7321 13.8471C51.0244 13.775 51.3224 13.9365 51.4208 14.2193L53.6719 20.7679C53.7703 21.0506 53.6343 21.3621 53.3565 21.4833L47.0574 24.2527C46.7651 24.3826 46.4237 24.2499 46.2935 23.9585C46.1633 23.6671 46.2964 23.3267 46.5886 23.1969L52.4017 20.6438L50.4948 15.0991L44.1407 16.6829C43.8976 16.7435 43.6401 16.6396 43.5099 16.429C42.1876 14.3058 40.492 12.4797 38.4694 11.0026C38.2582 10.8469 38.1771 10.5728 38.2726 10.3276L40.5701 4.42231L35.2894 1.84614L31.9214 7.44563C31.7911 7.66199 31.5365 7.76873 31.2935 7.71104C28.8542 7.14272 26.36 7.04752 23.8803 7.42832C23.6227 7.46583 23.3681 7.33024 23.2639 7.0908L20.7032 1.29514L15.1418 3.19625L16.7304 9.53137C16.7911 9.7737 16.687 10.0305 16.4757 10.1603C14.3461 11.4786 12.5145 13.1692 11.033 15.1857C10.8797 15.3963 10.6019 15.477 10.356 15.3818L4.43293 13.0913L1.84901 18.3561L7.46533 21.7141C7.68235 21.8439 7.78941 22.0949 7.73154 22.3401C7.16151 24.772 7.06603 27.2588 7.44797 29.7311C7.48848 29.9878 7.34959 30.2417 7.10943 30.3455L1.29635 32.8986L3.20318 38.4433L9.55735 36.8595C9.8033 36.7989 10.0579 36.9028 10.1881 37.1134C10.68 37.9038 11.2356 38.6654 11.8345 39.3751C12.04 39.6203 12.0082 39.9838 11.7651 40.1886C11.6551 40.281 11.5249 40.3242 11.3918 40.3242L11.3947 40.3271Z" fill="white"></path><path d="M15.9404 34.4249C15.7523 34.4249 15.5642 34.3326 15.4543 34.1624C12.8646 30.1842 12.555 25.0693 14.6441 20.8142C17.9398 14.104 26.0966 11.3173 32.8299 14.6002C37.526 16.8908 40.4456 21.5556 40.4485 26.7714C40.4485 27.0887 40.191 27.3484 39.8698 27.3484C39.5515 27.3484 39.2911 27.0916 39.2911 26.7714C39.2882 21.9999 36.6175 17.7332 32.3206 15.6359C26.1632 12.6299 18.6979 15.1801 15.6829 21.319C13.7703 25.2107 14.0567 29.8899 16.4265 33.5306C16.6001 33.7989 16.5249 34.1566 16.2558 34.3297C16.1574 34.3932 16.0503 34.422 15.9404 34.422V34.4249Z" fill="white"></path><path d="M31.0914 59.6269C30.3159 59.6269 29.5578 59.3182 29.0023 58.7672L24.4884 54.2697C23.8373 53.6206 23.5248 52.6888 23.655 51.7772C24.2308 47.7673 26.129 43.9824 29.0023 41.1177L33.8287 36.3058C40.7876 29.3649 49.607 24.8933 59.3321 23.373C59.5144 23.3442 59.6996 23.4048 59.8298 23.5346C59.96 23.6644 60.0208 23.849 59.9918 24.0308C58.4641 33.7267 53.9791 42.5169 47.0202 49.4578L42.1938 54.2697C39.3206 57.1344 35.5243 59.0269 31.5023 59.598C31.3663 59.6182 31.2274 59.6269 31.0914 59.6269ZM58.7187 24.6395C49.552 26.2377 41.2447 30.5419 34.6475 37.1193L29.8211 41.9313C27.1244 44.6199 25.342 48.1741 24.8038 51.9388C24.7256 52.4927 24.9137 53.0581 25.3101 53.4533L29.8211 57.9508C30.2175 58.346 30.7847 58.5335 31.3402 58.4557C35.1163 57.9191 38.6811 56.142 41.3778 53.4533L46.2042 48.6414C52.8014 42.064 57.1157 33.7816 58.7216 24.6424L58.7187 24.6395Z" fill="white"></path><path d="M55.1595 37.2578C55.0727 37.2578 54.9859 37.2376 54.9049 37.1972L54.1873 36.8453C50.5097 35.0393 47.5785 31.9843 45.935 28.2426C45.8077 27.9513 45.9408 27.6109 46.233 27.4839C46.5253 27.357 46.8667 27.4897 46.994 27.7811C48.5305 31.2746 51.2677 34.1277 54.6995 35.8125L55.4171 36.1644C55.7035 36.3058 55.8221 36.652 55.6804 36.9376C55.5791 37.1424 55.3737 37.2607 55.1595 37.2607V37.2578Z" fill="white"></path><path d="M36.759 57.8095C36.6114 57.8095 36.4639 57.7518 36.351 57.6393L25.5003 46.8211C25.2746 46.5961 25.2746 46.2297 25.5003 46.0047C25.726 45.7797 26.0935 45.7797 26.3192 46.0047L37.1699 56.8229C37.3956 57.0479 37.3956 57.4143 37.1699 57.6393C37.057 57.7518 36.9095 57.8095 36.7619 57.8095H36.759Z" fill="white"></path><path d="M19.2364 64.7157C19.086 64.7157 18.9355 64.6552 18.8255 64.5455L18.6693 64.3897C18.5246 64.2455 18.4667 64.0378 18.5188 63.8416L19.8007 58.747C20.443 56.1997 22.4395 54.2639 25.0119 53.7014C25.2029 53.6581 25.4054 53.7187 25.5443 53.8572L29.3927 57.694C29.5316 57.8325 29.5923 58.0344 29.5489 58.2248C28.9818 60.7895 27.0431 62.78 24.4882 63.4204L19.3782 64.6984C19.3319 64.71 19.2856 64.7157 19.2364 64.7157ZM24.9569 54.9015C22.9633 55.4525 21.4297 57.0074 20.9204 59.0268L19.8209 63.3974L24.2046 62.3011C26.2301 61.7934 27.7925 60.2673 28.3423 58.2768L24.9569 54.9015Z" fill="white"></path><path d="M44.8904 42.3092C43.8459 42.3092 42.8013 41.9139 42.0085 41.1206C41.2388 40.3532 40.8135 39.332 40.8135 38.2473C40.8135 37.1626 41.2388 36.1414 42.0085 35.374C43.597 33.7902 46.1838 33.7902 47.7724 35.374C48.5421 36.1414 48.9674 37.1626 48.9674 38.2473C48.9674 39.332 48.5421 40.3532 47.7724 41.1206C46.9767 41.9139 45.935 42.3092 44.8904 42.3092ZM44.8904 35.3394C44.1439 35.3394 43.3945 35.6221 42.8274 36.1904C42.2747 36.7414 41.9738 37.4713 41.9738 38.2473C41.9738 39.0233 42.2776 39.7561 42.8274 40.3042C43.9645 41.4379 45.8164 41.4379 46.9564 40.3042C47.5091 39.7532 47.81 39.0233 47.81 38.2473C47.81 37.4713 47.5062 36.7385 46.9564 36.1904C46.3864 35.6221 45.6399 35.3394 44.8933 35.3394H44.8904Z" fill="white"></path><path d="M28.2751 42.5573C28.1941 42.5573 28.1102 42.54 28.0292 42.5025L16.8573 37.2752C16.6403 37.1742 16.5072 36.9463 16.5274 36.7069C16.5477 36.4674 16.7126 36.2655 16.9441 36.1991L17.8729 35.9337C23.9782 34.1855 30.289 33.4643 36.6316 33.7932C36.9499 33.8105 37.1958 34.0816 37.1785 34.399C37.1611 34.7163 36.8949 34.9644 36.5708 34.9442C30.5494 34.6326 24.5569 35.2846 18.7496 36.8857L28.5211 41.4582C28.8104 41.5938 28.9348 41.9371 28.7988 42.2256C28.7004 42.4362 28.4921 42.5573 28.2751 42.5573Z" fill="white"></path><path d="M46.4615 66.5996C46.2387 66.5996 46.0333 66.4727 45.9378 66.2679L40.6947 55.1295C40.5588 54.841 40.6832 54.4977 40.9725 54.3621C41.2619 54.2265 41.6062 54.3506 41.7422 54.639L46.3284 64.3812C47.9343 58.5913 48.5883 52.6168 48.2758 46.6134C48.2584 46.2961 48.5044 46.0249 48.8226 46.0076C49.1496 45.9903 49.4129 46.2355 49.4303 46.5528C49.7601 52.8764 49.0368 59.1682 47.2833 65.2553L47.0171 66.1813C46.9505 66.4121 46.748 66.5794 46.5078 66.5967C46.4934 66.5967 46.476 66.5967 46.4615 66.5967V66.5996Z" fill="white"></path><path d="M17.3409 46.9018C17.1934 46.9018 17.0458 46.8441 16.9329 46.7316C16.7072 46.5066 16.7072 46.1402 16.9329 45.9152L20.165 42.6928C20.3907 42.4678 20.7582 42.4678 20.9839 42.6928C21.2096 42.9178 21.2096 43.2842 20.9839 43.5092L17.7518 46.7316C17.639 46.8441 17.4914 46.9018 17.3438 46.9018H17.3409Z" fill="white"></path><path d="M36.9679 66.4697C36.8203 66.4697 36.6727 66.412 36.5599 66.2995C36.3342 66.0745 36.3342 65.7081 36.5599 65.4831L39.792 62.2636C40.0177 62.0386 40.3851 62.0386 40.6108 62.2636C40.8365 62.4886 40.8365 62.855 40.6108 63.08L37.3788 66.2995C37.2659 66.412 37.1183 66.4697 36.9708 66.4697H36.9679Z" fill="white"></path><path d="M11.7941 58.9548C11.6465 58.9548 11.4989 58.8971 11.3861 58.7846C11.1604 58.5596 11.1604 58.1932 11.3861 57.9682L15.2721 54.0938C15.4978 53.8688 15.8652 53.8688 16.0909 54.0938C16.3166 54.3188 16.3166 54.6852 16.0909 54.9102L12.2049 58.7846C12.0921 58.8971 11.9445 58.9548 11.7969 58.9548H11.7941Z" fill="white"></path><path d="M24.879 72.0001C24.7314 72.0001 24.5839 71.9424 24.471 71.8299C24.2453 71.6048 24.2453 71.2385 24.471 71.0135L28.357 67.1391C28.5827 66.9141 28.9502 66.9141 29.1759 67.1391C29.4016 67.3641 29.4016 67.7305 29.1759 67.9555L25.2899 71.8299C25.177 71.9424 25.0295 72.0001 24.8819 72.0001H24.879Z" fill="white"></path></g><defs><clipPath id="clip0_72_1228"><rect width="60" height="72" fill="white"></rect></clipPath></defs></svg>