<svg xmlns="http://www.w3.org/2000/svg" width="65" height="49" viewBox="0 0 65 49" fill="none"><g clip-path="url(#clip0_72_1125)"><path d="M25.7985 5.32941H18.1224C17.6176 5.32941 17.207 4.92324 17.207 4.42392C17.207 3.92461 17.6176 3.51843 18.1224 3.51843H25.7985C26.3033 3.51843 26.7139 3.92461 26.7139 4.42392C26.7139 4.92324 26.3033 5.32941 25.7985 5.32941Z" fill="#003D4C"></path><path d="M32.1508 45.3366H4.32845C1.94323 45.3366 0 43.417 0 41.0549V7.80011C0 5.43807 1.94061 3.51843 4.32845 3.51843H8.35875C8.86352 3.51843 9.27413 3.92461 9.27413 4.42392C9.27413 4.92324 8.86352 5.32941 8.35875 5.32941H4.32845C2.95276 5.32941 1.83077 6.43929 1.83077 7.8027V41.0575C1.83077 42.4183 2.95015 43.5282 4.32845 43.5282H32.1508C32.6556 43.5282 33.0662 43.9344 33.0662 44.4337C33.0662 44.933 32.6556 45.3392 32.1508 45.3392V45.3366Z" fill="#003D4C"></path><path d="M55.8437 16.3712C55.3389 16.3712 54.9283 15.9651 54.9283 15.4657V7.8027C54.9283 6.43929 53.8089 5.32941 52.4306 5.32941H51.8421C51.3374 5.32941 50.9268 4.92324 50.9268 4.42392C50.9268 3.92461 51.3374 3.51843 51.8421 3.51843H52.4306C54.8158 3.51843 56.7591 5.44066 56.7591 7.8027V15.4657C56.7591 15.9651 56.3484 16.3712 55.8437 16.3712Z" fill="#003D4C"></path><path d="M43.2377 5.32941H35.1117C34.6069 5.32941 34.1963 4.92324 34.1963 4.42392C34.1963 3.92461 34.6069 3.51843 35.1117 3.51843H43.2377C43.7424 3.51843 44.153 3.92461 44.153 4.42392C44.153 4.92324 43.7424 5.32941 43.2377 5.32941Z" fill="#003D4C"></path><path d="M12.5483 9.17909H9.96165C8.57289 9.17909 7.44043 8.06146 7.44043 6.68511V2.49398C7.44043 1.12022 8.57027 0 9.96165 0H12.5483C13.937 0 15.0695 1.11763 15.0695 2.49398V6.6877C15.0695 8.06146 13.9396 9.18168 12.5483 9.18168V9.17909ZM9.96165 1.81098C9.58242 1.81098 9.27119 2.11626 9.27119 2.49398V6.6877C9.27119 7.06283 9.57981 7.3707 9.96165 7.3707H12.5483C12.9275 7.3707 13.2387 7.06542 13.2387 6.6877V2.49398C13.2387 2.11885 12.9301 1.81098 12.5483 1.81098H9.96165Z" fill="#003D4C"></path><path d="M29.9877 9.17909H27.4011C26.0123 9.17909 24.8799 8.06146 24.8799 6.68511V2.49398C24.8799 1.12022 26.0097 0 27.4011 0H29.9877C31.3765 0 32.5089 1.11763 32.5089 2.49398V6.6877C32.5089 8.06146 31.3791 9.18168 29.9877 9.18168V9.17909ZM27.4011 1.81098C27.0219 1.81098 26.7106 2.11626 26.7106 2.49398V6.6877C26.7106 7.06283 27.0193 7.3707 27.4011 7.3707H29.9877C30.3669 7.3707 30.6782 7.06542 30.6782 6.6877V2.49398C30.6782 2.11885 30.3696 1.81098 29.9877 1.81098H27.4011Z" fill="#003D4C"></path><path d="M47.4272 9.17909H44.8406C43.4518 9.17909 42.3193 8.06146 42.3193 6.68511V2.49398C42.3193 1.12022 43.4492 0 44.8406 0H47.4272C48.8159 0 49.9484 1.11763 49.9484 2.49398V6.6877C49.9484 8.06146 48.8186 9.18168 47.4272 9.18168V9.17909ZM44.8406 1.81098C44.4613 1.81098 44.1501 2.11626 44.1501 2.49398V6.6877C44.1501 7.06283 44.4587 7.3707 44.8406 7.3707H47.4272C47.8064 7.3707 48.1176 7.06542 48.1176 6.6877V2.49398C48.1176 2.11885 47.809 1.81098 47.4272 1.81098H44.8406Z" fill="#003D4C"></path><path d="M55.8436 12.7286H0.915383C0.410614 12.7286 0 12.3224 0 11.8231C0 11.3238 0.410614 10.9176 0.915383 10.9176H55.8436C56.3483 10.9176 56.7589 11.3238 56.7589 11.8231C56.7589 12.3224 56.3483 12.7286 55.8436 12.7286Z" fill="#003D4C"></path><path d="M49.1296 49C40.3785 49 33.2568 41.9578 33.2568 33.2988C33.2568 24.6397 40.3759 17.5975 49.1296 17.5975C57.8832 17.5975 65.0023 24.6397 65.0023 33.2988C65.0023 41.9578 57.8832 49 49.1296 49ZM49.1296 19.4085C41.388 19.4085 35.0876 25.6383 35.0876 33.2988C35.0876 40.9592 41.3854 47.189 49.1296 47.189C56.8737 47.189 63.1715 40.9592 63.1715 33.2988C63.1715 25.6383 56.8737 19.4085 49.1296 19.4085Z" fill="#003D4C"></path><path d="M49.1269 34.2043C48.9333 34.2043 48.7398 34.1448 48.575 34.0206L40.6661 28.0987C40.2634 27.796 40.1849 27.2295 40.4883 26.831C40.7943 26.4326 41.367 26.3524 41.7698 26.6551L49.6787 32.577C50.0815 32.8797 50.1599 33.4463 49.8566 33.8447C49.6761 34.0801 49.4015 34.2043 49.1269 34.2043Z" fill="#003D4C"></path><path d="M49.1299 34.2043C48.8814 34.2043 48.633 34.1034 48.4525 33.9093C48.1125 33.5394 48.1387 32.9676 48.5127 32.6313L54.3267 27.3976C54.7007 27.0612 55.2787 27.0871 55.6187 27.4571C55.9587 27.827 55.9325 28.3988 55.5585 28.7351L49.7445 33.9688C49.5693 34.1267 49.3496 34.2043 49.1299 34.2043Z" fill="#003D4C"></path><path d="M49.1302 22.5131C48.6255 22.5131 48.2148 22.1069 48.2148 21.6076V18.992C48.2148 18.4927 48.6255 18.0865 49.1302 18.0865C49.635 18.0865 50.0456 18.4927 50.0456 18.992V21.6076C50.0456 22.1069 49.635 22.5131 49.1302 22.5131Z" fill="#003D4C"></path><path d="M37.3105 34.2043H34.6664C34.1616 34.2043 33.751 33.7981 33.751 33.2988C33.751 32.7995 34.1616 32.3933 34.6664 32.3933H37.3105C37.8153 32.3933 38.2259 32.7995 38.2259 33.2988C38.2259 33.7981 37.8153 34.2043 37.3105 34.2043Z" fill="#003D4C"></path><path d="M49.1302 48.511C48.6255 48.511 48.2148 48.1049 48.2148 47.6055V44.99C48.2148 44.4907 48.6255 44.0845 49.1302 44.0845C49.635 44.0845 50.0456 44.4907 50.0456 44.99V47.6055C50.0456 48.1049 49.635 48.511 49.1302 48.511Z" fill="#003D4C"></path><path d="M63.5927 34.2043H60.9486C60.4438 34.2043 60.0332 33.7981 60.0332 33.2988C60.0332 32.7995 60.4438 32.3933 60.9486 32.3933H63.5927C64.0975 32.3933 64.5081 32.7995 64.5081 33.2988C64.5081 33.7981 64.0975 34.2043 63.5927 34.2043Z" fill="#003D4C"></path><path d="M11.4243 19.1679H5.62339C5.11862 19.1679 4.70801 18.7617 4.70801 18.2624C4.70801 17.7631 5.11862 17.3569 5.62339 17.3569H11.4243C11.9291 17.3569 12.3397 17.7631 12.3397 18.2624C12.3397 18.7617 11.9291 19.1679 11.4243 19.1679Z" fill="#003D4C"></path><path d="M23.0366 19.1679H17.2357C16.7309 19.1679 16.3203 18.7617 16.3203 18.2624C16.3203 17.7631 16.7309 17.3569 17.2357 17.3569H23.0366C23.5414 17.3569 23.952 17.7631 23.952 18.2624C23.952 18.7617 23.5414 19.1679 23.0366 19.1679Z" fill="#003D4C"></path><path d="M11.4243 28.9705H5.62339C5.11862 28.9705 4.70801 28.5644 4.70801 28.065C4.70801 27.5657 5.11862 27.1595 5.62339 27.1595H11.4243C11.9291 27.1595 12.3397 27.5657 12.3397 28.065C12.3397 28.5644 11.9291 28.9705 11.4243 28.9705Z" fill="#003D4C"></path><path d="M23.0366 28.9705H17.2357C16.7309 28.9705 16.3203 28.5644 16.3203 28.065C16.3203 27.5657 16.7309 27.1595 17.2357 27.1595H23.0366C23.5414 27.1595 23.952 27.5657 23.952 28.065C23.952 28.5644 23.5414 28.9705 23.0366 28.9705Z" fill="#003D4C"></path><path d="M11.4243 38.7706H5.62339C5.11862 38.7706 4.70801 38.3644 4.70801 37.8651C4.70801 37.3658 5.11862 36.9596 5.62339 36.9596H11.4243C11.9291 36.9596 12.3397 37.3658 12.3397 37.8651C12.3397 38.3644 11.9291 38.7706 11.4243 38.7706Z" fill="#003D4C"></path><path d="M23.0366 38.7706H17.2357C16.7309 38.7706 16.3203 38.3644 16.3203 37.8651C16.3203 37.3658 16.7309 36.9596 17.2357 36.9596H23.0366C23.5414 36.9596 23.952 37.3658 23.952 37.8651C23.952 38.3644 23.5414 38.7706 23.0366 38.7706Z" fill="#003D4C"></path><path d="M34.6489 19.1679H28.848C28.3432 19.1679 27.9326 18.7617 27.9326 18.2624C27.9326 17.7631 28.3432 17.3569 28.848 17.3569H34.6489C35.1537 17.3569 35.5643 17.7631 35.5643 18.2624C35.5643 18.7617 35.1537 19.1679 34.6489 19.1679Z" fill="#003D4C"></path></g><defs><clipPath id="clip0_72_1125"><rect width="65" height="49" fill="white"></rect></clipPath></defs></svg>