<svg xmlns="http://www.w3.org/2000/svg" width="65" height="47" viewBox="0 0 65 47" fill="none"><g clip-path="url(#clip0_72_1169)"><path d="M7.69285 40.0799C7.44647 40.0799 7.19485 40.0256 6.96157 39.917C6.35348 39.6352 5.97605 39.0481 5.97605 38.3861V31.1739H3.19771C1.43373 31.1739 0 29.7593 0 28.019V3.15488C0 1.41453 1.43373 0 3.19771 0H42.6239C44.3879 0 45.8216 1.41453 45.8216 3.15488V28.019C45.8216 29.7593 44.3879 31.1739 42.6239 31.1739H19.4536C19.2754 31.1739 19.1024 31.2359 18.9661 31.3471L8.78322 39.6843C8.46607 39.9429 8.08339 40.0774 7.69285 40.0774V40.0799ZM3.19771 1.81018C2.44546 1.81018 1.83475 2.41271 1.83475 3.15488V28.019C1.83475 28.7612 2.44546 29.3637 3.19771 29.3637H6.42687C7.1896 29.3637 7.81342 29.9766 7.81342 30.7317V38.1301L17.7971 29.9559C18.2636 29.5757 18.8534 29.3637 19.4562 29.3637H42.6265C43.3788 29.3637 43.9895 28.7612 43.9895 28.019V3.15488C43.9895 2.41271 43.3788 1.81018 42.6265 1.81018H3.19771Z" fill="#003D4C"></path><path d="M57.3048 47C56.9143 47 56.5316 46.8655 56.2145 46.6069L46.0316 38.2697C45.8953 38.1585 45.7223 38.0965 45.5441 38.0965H25.1967C24.6908 38.0965 24.2793 37.6905 24.2793 37.1914C24.2793 36.6923 24.6908 36.2863 25.1967 36.2863H45.5441C46.1495 36.2863 46.7393 36.4958 47.2058 36.8785L57.1895 45.0527V37.6543C57.1895 36.9018 57.8107 36.2863 58.576 36.2863H61.8052C62.5575 36.2863 63.1682 35.6838 63.1682 34.9416V10.0775C63.1682 9.33532 62.5575 8.73279 61.8052 8.73279H53.2159C52.7101 8.73279 52.2986 8.32679 52.2986 7.8277C52.2986 7.3286 52.7101 6.92261 53.2159 6.92261H61.8052C63.5692 6.92261 65.0029 8.33713 65.0029 10.0775V34.9416C65.0029 36.6819 63.5692 38.0965 61.8052 38.0965H59.0269V45.3062C59.0269 45.9682 58.6494 46.5552 58.0413 46.8371C57.8054 46.9457 57.5564 47 57.3101 47H57.3048Z" fill="#003D4C"></path></g><defs><clipPath id="clip0_72_1169"><rect width="65" height="47" fill="white"></rect></clipPath></defs></svg>