<svg xmlns="http://www.w3.org/2000/svg" width="69" height="67" viewBox="0 0 69 67" fill="none"><g clip-path="url(#clip0_72_1205)"><path d="M32.0176 47.8664C24.2264 47.8664 17.8877 41.5101 17.8877 33.6975C17.8877 25.8849 24.2264 19.5287 32.0176 19.5287C39.8087 19.5287 46.1475 25.8849 46.1475 33.6975C46.1475 41.5101 39.8087 47.8664 32.0176 47.8664ZM32.0176 21.5072C25.3129 21.5072 19.858 26.9772 19.858 33.7004C19.858 40.4235 25.3129 45.8935 32.0176 45.8935C38.7222 45.8935 44.1772 40.4235 44.1772 33.7004C44.1772 26.9772 38.7222 21.5072 32.0176 21.5072Z" fill="#003D4C"></path><path d="M32.0174 24.2168C31.4741 24.2168 31.0322 23.7737 31.0322 23.2289V20.5194C31.0322 19.9746 31.4741 19.5315 32.0174 19.5315C32.5606 19.5315 33.0025 19.9746 33.0025 20.5194V23.2289C33.0025 23.7737 32.5606 24.2168 32.0174 24.2168Z" fill="#003D4C"></path><path d="M21.5779 34.6883H18.8758C18.3325 34.6883 17.8906 34.2451 17.8906 33.7004C17.8906 33.1557 18.3325 32.7125 18.8758 32.7125H21.5779C22.1211 32.7125 22.5631 33.1557 22.5631 33.7004C22.5631 34.2451 22.1211 34.6883 21.5779 34.6883Z" fill="#003D4C"></path><path d="M32.0174 47.8663C31.4741 47.8663 31.0322 47.4232 31.0322 46.8785V44.1689C31.0322 43.6242 31.4741 43.181 32.0174 43.181C32.5606 43.181 33.0025 43.6242 33.0025 44.1689V46.8785C33.0025 47.4232 32.5606 47.8663 32.0174 47.8663Z" fill="#003D4C"></path><path d="M45.1619 34.6883H42.4598C41.9165 34.6883 41.4746 34.2451 41.4746 33.7004C41.4746 33.1557 41.9165 32.7125 42.4598 32.7125H45.1619C45.7051 32.7125 46.147 33.1557 46.147 33.7004C46.147 34.2451 45.7051 34.6883 45.1619 34.6883Z" fill="#003D4C"></path><path d="M32.0176 34.6882C31.8375 34.6882 31.6545 34.6374 31.4912 34.5358L26.1461 31.1488C25.6873 30.8581 25.5494 30.2485 25.8393 29.7856C26.1292 29.3255 26.7372 29.1872 27.1988 29.4779L31.8206 32.4048L35.5219 28.0046C35.8738 27.5869 36.4958 27.5361 36.9096 27.886C37.3262 28.2389 37.3768 28.8598 37.0278 29.2775L32.7719 34.3354C32.5777 34.564 32.2991 34.6854 32.0176 34.6854V34.6882Z" fill="#003D4C"></path><path d="M46.3809 19.9973C46.1304 19.9973 45.8827 19.9041 45.6913 19.715C42.9582 17.0224 39.5411 15.2132 35.8032 14.4765C35.2684 14.3721 34.9222 13.8527 35.0263 13.3165C35.1304 12.7802 35.6484 12.433 36.1832 12.5375C40.2983 13.3475 44.0644 15.3402 47.0733 18.3038C47.4617 18.6848 47.4674 19.3114 47.0846 19.7009C46.8903 19.8985 46.637 19.9973 46.3809 19.9973Z" fill="#003D4C"></path><path d="M8.00207 41.5045C7.57423 41.5045 7.17736 41.2223 7.05633 40.7876C6.40613 38.493 6.07399 36.1108 6.06836 33.7032C6.06836 33.1585 6.50746 32.7153 7.0507 32.7125C7.59394 32.7125 8.03585 33.1528 8.03585 33.6976C8.04148 35.9217 8.34828 38.126 8.94782 40.2457C9.097 40.7707 8.79301 41.3183 8.26947 41.465C8.1794 41.4904 8.08933 41.5017 7.99926 41.5017L8.00207 41.5045Z" fill="#003D4C"></path><path d="M14.3859 52.3654C14.1354 52.3654 13.8821 52.2695 13.6907 52.0776C12.6324 51.0191 11.6585 49.8591 10.7972 48.6341C10.4847 48.1882 10.5889 47.5729 11.0336 47.2568C11.4783 46.9435 12.0919 47.0479 12.4072 47.4939C13.2037 48.6257 14.1045 49.6982 15.084 50.6776C15.4696 51.0643 15.4696 51.6881 15.084 52.0747C14.8926 52.2695 14.6393 52.3654 14.3859 52.3654Z" fill="#003D4C"></path><path d="M32.0345 63.407C24.1026 63.407 16.6633 60.3135 11.0705 54.7053C10.6849 54.3186 10.6849 53.6948 11.0705 53.3082C11.4561 52.9215 12.0781 52.9215 12.4638 53.3082C17.6851 58.5438 24.629 61.4284 32.0176 61.4312C37.2839 61.4312 42.3898 59.9551 46.8061 57.1608C47.2677 56.8701 47.8757 57.0084 48.1656 57.4685C48.4556 57.9286 48.3176 58.541 47.8588 58.8317C43.1273 61.8264 37.6555 63.407 32.0373 63.407H32.0345ZM54.3242 52.7578C54.1047 52.7578 53.8852 52.6844 53.705 52.5376C53.2828 52.1933 53.2181 51.5723 53.5615 51.149C57.5499 46.2237 59.7482 40.0086 59.7482 33.6496C59.7482 26.2406 56.8716 19.2691 51.6446 14.0221C51.6109 13.9882 51.5743 13.9515 51.5405 13.9205C51.1352 13.5564 51.1014 12.9326 51.4645 12.5262C51.8276 12.1197 52.4496 12.0859 52.855 12.45C52.9169 12.5064 52.9788 12.5685 53.0379 12.6278C58.6364 18.2501 61.7185 25.7156 61.7185 33.6524C61.7185 40.4631 59.3654 47.1213 55.0927 52.3993C54.8984 52.6392 54.6142 52.7634 54.3271 52.7634L54.3242 52.7578ZM11.6053 34.6883C11.062 34.6883 10.6201 34.2451 10.6201 33.7004V33.6468C10.6201 28.7215 12.3258 23.9064 15.422 20.0932C18.476 16.3337 22.7431 13.6975 27.4409 12.6673C27.9729 12.5516 28.4964 12.8874 28.6146 13.4209C28.73 13.9543 28.3951 14.4793 27.8631 14.5979C19.0136 16.5369 12.5904 24.5499 12.5904 33.6468V33.7004C12.5904 34.2451 12.1485 34.6883 11.6053 34.6883Z" fill="#003D4C"></path><path d="M11.7657 54.996C11.5124 54.996 11.2619 54.9001 11.0705 54.7082C10.6848 54.3215 10.6848 53.6977 11.0705 53.311L19.8833 44.4738C20.269 44.0872 20.891 44.0872 21.2766 44.4738C21.6622 44.8605 21.6622 45.4843 21.2766 45.871L12.4637 54.7082C12.2723 54.9001 12.019 54.9989 11.7657 54.9989V54.996Z" fill="#003D4C"></path><path d="M15.5121 34.6883H7.158C6.61476 34.6883 6.17285 34.2451 6.17285 33.7004C6.17285 33.1557 6.61476 32.7125 7.158 32.7125H15.5121C16.0553 32.7125 16.4972 33.1557 16.4972 33.7004C16.4972 34.2451 16.0553 34.6883 15.5121 34.6883Z" fill="#003D4C"></path><path d="M43.1865 23.2008C42.9332 23.2008 42.6826 23.1048 42.4884 22.9129C42.1028 22.5262 42.1028 21.9025 42.4884 21.5158L51.4955 12.4839C51.8811 12.0972 52.5032 12.0972 52.8888 12.4839C53.2744 12.8705 53.2744 13.4943 52.8888 13.881L43.8817 22.9129C43.6903 23.1048 43.437 23.2008 43.1837 23.2008H43.1865Z" fill="#003D4C"></path><path d="M59.785 62.4191H54.7579C54.4201 62.4191 54.1077 62.247 53.9276 61.9619L45.6861 48.9503C45.3933 48.4902 45.5313 47.8806 45.9901 47.587C46.4489 47.2935 47.0568 47.4318 47.3496 47.8918L55.3012 60.4462H59.785C60.3282 60.4462 60.7702 60.8894 60.7702 61.4341C60.7702 61.9788 60.3282 62.422 59.785 62.422V62.4191Z" fill="#003D4C"></path><path d="M64.0182 66.427C61.271 66.427 59.0361 64.186 59.0361 61.4312C59.0361 58.6765 61.271 56.4354 64.0182 56.4354C66.7653 56.4354 69.0002 58.6765 69.0002 61.4312C69.0002 64.186 66.7653 66.427 64.0182 66.427ZM64.0182 58.4083C62.3575 58.4083 61.0064 59.7631 61.0064 61.4284C61.0064 63.0937 62.3575 64.4484 64.0182 64.4484C65.6789 64.4484 67.0299 63.0937 67.0299 61.4284C67.0299 59.7631 65.6789 58.4083 64.0182 58.4083Z" fill="#003D4C"></path><path d="M4.98205 67C2.23489 67 0 64.7589 0 62.0042C0 59.2495 2.23489 57.0084 4.98205 57.0084C7.72922 57.0084 9.9641 59.2495 9.9641 62.0042C9.9641 64.7589 7.72922 67 4.98205 67ZM4.98205 58.9842C3.32137 58.9842 1.9703 60.3389 1.9703 62.0042C1.9703 63.6695 3.32137 65.0243 4.98205 65.0243C6.64274 65.0243 7.9938 63.6695 7.9938 62.0042C7.9938 60.3389 6.64274 58.9842 4.98205 58.9842Z" fill="#003D4C"></path><path d="M43.5406 9.99158C40.7935 9.99158 38.5586 7.75053 38.5586 4.99579C38.5586 2.24105 40.7935 0 43.5406 0C46.2878 0 48.5227 2.24105 48.5227 4.99579C48.5227 7.75053 46.2878 9.99158 43.5406 9.99158ZM43.5406 1.97574C41.88 1.97574 40.5289 3.33053 40.5289 4.99579C40.5289 6.66105 41.88 8.01584 43.5406 8.01584C45.2013 8.01584 46.5524 6.66105 46.5524 4.99579C46.5524 3.33053 45.2013 1.97574 43.5406 1.97574Z" fill="#003D4C"></path><path d="M32.0174 17.9425C31.4741 17.9425 31.0322 17.4993 31.0322 16.9546V7.49648C31.0322 7.05053 31.3306 6.66103 31.7584 6.54248L38.9472 4.58086C39.4736 4.43691 40.014 4.74738 40.1575 5.27519C40.3011 5.80299 39.9915 6.34491 39.4651 6.48885L33.0025 8.2529V16.9574C33.0025 17.5022 32.5606 17.9453 32.0174 17.9453V17.9425Z" fill="#003D4C"></path><path d="M4.98222 58.7103C4.43898 58.7103 3.99707 58.2672 3.99707 57.7225V49.5147C3.99707 49.2522 4.10122 49.001 4.28417 48.8147L11.0676 42.0125C11.4533 41.6259 12.0753 41.6259 12.4609 42.0125C12.8465 42.3992 12.8465 43.023 12.4609 43.4097L5.96737 49.9211V57.7196C5.96737 58.2644 5.52546 58.7075 4.98222 58.7075V58.7103Z" fill="#003D4C"></path></g><defs><clipPath id="clip0_72_1205"><rect width="69" height="67" fill="white"></rect></clipPath></defs></svg>