<svg xmlns="http://www.w3.org/2000/svg" width="92" height="89" viewBox="0 0 92 89" fill="none"><g clip-path="url(#clip0_65_989)"><path d="M59.6349 89.0001C58.917 89.0001 58.333 88.4144 58.333 87.6943V70.4651H53.2853C52.5674 70.4651 51.9834 69.8794 51.9834 69.1593C51.9834 68.4393 52.5674 67.8535 53.2853 67.8535H59.6349C60.3528 67.8535 60.9368 68.4393 60.9368 69.1593V87.6943C60.9368 88.4144 60.3528 89.0001 59.6349 89.0001Z" fill="#003D4C"></path><path d="M36.1334 89.0001C35.4155 89.0001 34.8315 88.4144 34.8315 87.6943V69.1593C34.8315 68.4393 35.4155 67.8535 36.1334 67.8535H39.3175C40.0354 67.8535 40.6194 68.4393 40.6194 69.1593C40.6194 69.8794 40.0354 70.4651 39.3175 70.4651H37.4354V87.6943C37.4354 88.4144 36.8514 89.0001 36.1334 89.0001Z" fill="#003D4C"></path><path d="M28.5712 89.0001C27.8533 89.0001 27.2693 88.4143 27.2693 87.6943V78.6133H6.37187V83.9522C6.37187 84.6723 5.78788 85.258 5.06997 85.258C4.35206 85.258 3.76807 84.6723 3.76807 83.9522V77.3075C3.76807 76.5875 4.35206 76.0017 5.06997 76.0017H28.5712C29.2891 76.0017 29.8731 76.5875 29.8731 77.3075V87.6943C29.8731 88.4143 29.2891 89.0001 28.5712 89.0001Z" fill="#003D4C"></path><path d="M90.6981 89H5.06997C4.35206 89 3.76807 88.4143 3.76807 87.6942C3.76807 86.9742 4.35206 86.3884 5.06997 86.3884H90.6981C91.416 86.3884 92 86.9742 92 87.6942C92 88.4143 91.416 89 90.6981 89Z" fill="#003D4C"></path><path d="M67.1969 89.0001C66.479 89.0001 65.895 88.4143 65.895 87.6943V59.8881C65.895 59.168 66.479 58.5823 67.1969 58.5823H90.6982C91.4161 58.5823 92.0001 59.168 92.0001 59.8881V81.0086C92.0001 81.7286 91.4161 82.3144 90.6982 82.3144C89.9803 82.3144 89.3963 81.7286 89.3963 81.0086V61.1939H68.4988V87.6943C68.4988 88.4143 67.9148 89.0001 67.1969 89.0001Z" fill="#003D4C"></path><path d="M24.539 50.9824C24.4609 50.9824 24.3827 50.975 24.3009 50.9601C21.5111 50.4452 19.0896 48.8708 17.4789 46.5278C15.8683 44.1848 15.2657 41.3531 15.779 38.5549L18.4609 23.9373C18.5911 23.2285 19.2681 22.7584 19.9786 22.889C20.6853 23.0195 21.154 23.6986 21.0238 24.4112L18.3419 39.0287C17.9551 41.1404 18.4089 43.2782 19.6252 45.0466C20.8416 46.8151 22.668 48.0015 24.7733 48.3932C25.4801 48.5238 25.9488 49.2028 25.8186 49.9154C25.7032 50.5459 25.1564 50.9862 24.539 50.9862V50.9824Z" fill="#003D4C"></path><path d="M40.7424 33.1973C40.0579 33.1973 39.3735 33.0443 38.7337 32.7347L36.8478 31.8206C36.2006 31.5072 35.929 30.7275 36.2415 30.0783C36.554 29.4291 37.3314 29.1568 37.9786 29.4702L39.8645 30.3842C40.4225 30.6528 41.0585 30.6566 41.6128 30.3842L52.9505 24.9334C53.4266 24.7058 53.754 24.2731 53.8507 23.7507C53.9139 23.4075 53.8656 23.0605 53.7168 22.7471C53.3262 21.9338 52.3516 21.5906 51.5407 21.9786L42.2563 26.437C41.2892 26.9033 40.177 26.9033 39.2098 26.4332L37.5583 25.6348C36.9111 25.3214 36.6395 24.5417 36.952 23.8925C37.2644 23.2433 38.0418 22.971 38.6891 23.2844L40.3444 24.0828C40.5936 24.2059 40.88 24.2059 41.1292 24.0828L50.4137 19.6244C52.5153 18.617 55.0447 19.5087 56.0565 21.6092C56.4508 22.4263 56.5735 23.3329 56.4099 24.2246C56.1644 25.5602 55.2902 26.7056 54.0739 27.2913L42.7399 32.7421C42.1038 33.0481 41.4231 33.201 40.7424 33.201V33.1973Z" fill="#003D4C"></path><path d="M47.1997 70.368C46.3516 70.368 45.5147 70.1367 44.7707 69.6852C43.6883 69.0323 42.9258 67.9952 42.6207 66.764L39.5929 54.4931L24.249 50.9525C23.5497 50.7921 23.1108 50.0907 23.2707 49.3856C23.4307 48.6842 24.13 48.2439 24.833 48.4043L40.2104 51.9524C41.118 52.1352 41.8768 52.8627 42.1074 53.7992L45.1502 66.1335C45.2878 66.6856 45.63 67.152 46.1136 67.4467C46.5971 67.7415 47.17 67.8273 47.7205 67.6892C48.855 67.4057 49.5506 66.2491 49.2679 65.1112L45.5668 50.1094C45.351 49.2363 44.7187 48.5275 43.878 48.2178C43.8594 48.2103 43.8445 48.2066 43.8259 48.1991L30.0295 42.4461C29.4455 42.2036 29.1181 41.5694 29.2595 40.9501L33.4739 22.3628C33.7232 21.2622 33.0648 20.1728 31.9786 19.8855L25.0264 18.0425C24.714 17.9903 24.3904 18.0126 24.0853 18.1096L9.77184 22.5419C8.37694 22.9747 7.2573 24.0007 6.69934 25.355L2.7304 35.0553C2.56673 35.4582 2.56673 35.9059 2.73412 36.3088C2.9015 36.7118 3.21768 37.0252 3.61941 37.1931C4.45263 37.5363 5.4086 37.1334 5.75081 36.3014L9.41846 27.3324C9.79044 26.422 10.5418 25.7281 11.4755 25.4334L14.3025 24.5379C14.9869 24.3216 15.7197 24.7021 15.9354 25.3886C16.1512 26.0751 15.7718 26.81 15.0873 27.0264L12.2603 27.9218C12.0632 27.9853 11.9032 28.1308 11.8251 28.321L8.15748 37.2901C7.27218 39.4577 4.79113 40.4986 2.62996 39.6069C1.58472 39.1779 0.766381 38.3608 0.331173 37.3162C-0.104035 36.2678 -0.107755 35.115 0.320014 34.0629L4.28896 24.3626C5.14078 22.2808 6.85929 20.7063 9.00186 20.0422L23.3154 15.61C24.0333 15.3861 24.7995 15.3413 25.5398 15.4794C25.5732 15.4868 25.603 15.4943 25.6365 15.5018L32.6407 17.3597C35.092 18.0089 36.5725 20.4601 36.0108 22.9411L32.0418 40.4576L44.8042 45.7778C46.4446 46.3934 47.6759 47.7738 48.0962 49.4826L51.7973 64.4844C52.4222 67.0177 50.8748 69.592 48.3491 70.2225C47.9697 70.3158 47.5829 70.3643 47.1997 70.3643V70.368ZM39.6524 54.5043C39.6524 54.5043 39.6524 54.5043 39.6561 54.5043H39.6524Z" fill="#003D4C"></path><path d="M11.3415 70.2002C10.8208 70.2002 10.2963 70.1106 9.78669 69.9353C8.59266 69.5211 7.63297 68.663 7.08245 67.5214C6.53193 66.3835 6.45753 65.0963 6.87042 63.9024C7.28331 62.7048 8.13885 61.7423 9.27337 61.1901L20.1498 55.9035L20.5553 53.0643C20.6557 52.3517 21.3178 51.8517 22.0283 51.9562C22.7388 52.0607 23.2335 52.721 23.1331 53.4336L22.6718 56.6496C22.5751 57.2839 22.1808 57.8174 21.6191 58.086L10.4116 63.5331C9.902 63.7793 9.51887 64.2121 9.33288 64.7494C9.1469 65.2866 9.18037 65.8649 9.42587 66.376C9.67138 66.8871 10.1029 67.2714 10.6385 67.458C11.1741 67.6445 11.7507 67.6109 12.2603 67.3647L23.479 61.9102C25.3091 61.0185 26.5775 59.2799 26.8714 57.254L27.1876 55.0416C27.2917 54.329 27.9464 53.8328 28.6606 53.9336C29.371 54.038 29.8658 54.6984 29.7653 55.411L29.4492 57.6271C29.0326 60.5111 27.2248 62.9884 24.6172 64.2569L13.3948 69.7114C12.7439 70.0285 12.0446 70.189 11.3378 70.189L11.3415 70.2002ZM20.4958 55.7393C20.4958 55.7393 20.4883 55.743 20.4846 55.7468L20.4958 55.7393Z" fill="#003D4C"></path><path d="M31.6774 15.3004C28.2776 15.3004 25.1679 12.9984 24.2863 9.54366C23.7804 7.56256 24.078 5.50685 25.1158 3.74961C26.1536 1.99237 27.8126 0.746257 29.7878 0.238858C31.7592 -0.268541 33.8125 0.0261982 35.5645 1.07084C37.3165 2.11176 38.5589 3.77573 39.0648 5.75682C39.5707 7.73792 39.2731 9.79363 38.2353 11.5509C37.1975 13.3081 35.5385 14.5542 33.5633 15.0616C32.931 15.222 32.2986 15.3004 31.6774 15.3004ZM31.6848 2.61169C31.2682 2.61169 30.8479 2.66393 30.4313 2.77212C29.1331 3.10417 28.0395 3.92496 27.3551 5.08153C26.6707 6.2381 26.4772 7.59241 26.8083 8.89822C27.4927 11.5882 30.2342 13.2186 32.9161 12.5321C35.598 11.8456 37.2235 9.09595 36.5391 6.40599C36.208 5.10392 35.3897 4.00704 34.2366 3.32056C33.4517 2.8542 32.5739 2.61542 31.6848 2.61542V2.61169Z" fill="#003D4C"></path><path d="M85.07 60.8692C84.3521 60.8692 83.7681 60.2835 83.7681 59.5634V13.405C83.7681 12.685 84.3521 12.0992 85.07 12.0992C85.7879 12.0992 86.3719 12.685 86.3719 13.405V59.5634C86.3719 60.2835 85.7879 60.8692 85.07 60.8692Z" fill="#003D4C"></path><path d="M85.0703 35.1486H63.2504C62.7929 35.1486 62.3651 34.9061 62.1307 34.5106C61.8964 34.1151 61.8852 33.6226 62.1047 33.2197L66.4196 25.2468L62.1047 17.274C61.8852 16.871 61.8964 16.3785 62.1307 15.9831C62.3651 15.5876 62.7891 15.3451 63.2504 15.3451H80.5285C81.2464 15.3451 81.8304 15.9308 81.8304 16.6509C81.8304 17.371 81.2464 17.9567 80.5285 17.9567H65.4413L69.0494 24.6238C69.2577 25.0118 69.2577 25.4819 69.0494 25.8699L65.4413 32.537H85.0703C85.7882 32.537 86.3722 33.1227 86.3722 33.8428C86.3722 34.5628 85.7882 35.1486 85.0703 35.1486Z" fill="#003D4C"></path></g><defs><clipPath id="clip0_65_989"><rect width="92" height="89" fill="white"></rect></clipPath></defs></svg>