<svg xmlns="http://www.w3.org/2000/svg" width="92" height="89" viewBox="0 0 92 89" fill="none"><path d="M59.6329 89.0001C58.915 89.0001 58.331 88.4144 58.331 87.6943V70.4651H53.2833C52.5654 70.4651 51.9814 69.8794 51.9814 69.1593C51.9814 68.4393 52.5654 67.8535 53.2833 67.8535H59.6329C60.3508 67.8535 60.9348 68.4393 60.9348 69.1593V87.6943C60.9348 88.4144 60.3508 89.0001 59.6329 89.0001Z" fill="#003D4C"></path><path d="M36.1315 89.0001C35.4136 89.0001 34.8296 88.4144 34.8296 87.6943V69.1593C34.8296 68.4393 35.4136 67.8535 36.1315 67.8535H39.3156C40.0335 67.8535 40.6175 68.4393 40.6175 69.1593C40.6175 69.8794 40.0335 70.4651 39.3156 70.4651H37.4334V87.6943C37.4334 88.4144 36.8494 89.0001 36.1315 89.0001Z" fill="#003D4C"></path><path d="M28.5693 89.0001C27.8513 89.0001 27.2673 88.4143 27.2673 87.6943V78.6133H6.36992V83.9522C6.36992 84.6723 5.78592 85.258 5.06802 85.258C4.35011 85.258 3.76611 84.6723 3.76611 83.9522V77.3075C3.76611 76.5875 4.35011 76.0017 5.06802 76.0017H28.5693C29.2872 76.0017 29.8712 76.5875 29.8712 77.3075V87.6943C29.8712 88.4143 29.2872 89.0001 28.5693 89.0001Z" fill="#003D4C"></path><path d="M90.6961 89H5.06802C4.35011 89 3.76611 88.4143 3.76611 87.6942C3.76611 86.9742 4.35011 86.3884 5.06802 86.3884H90.6961C91.414 86.3884 91.998 86.9742 91.998 87.6942C91.998 88.4143 91.414 89 90.6961 89Z" fill="#003D4C"></path><path d="M67.195 89.0001C66.4771 89.0001 65.8931 88.4143 65.8931 87.6943V59.8881C65.8931 59.168 66.4771 58.5823 67.195 58.5823H90.6962C91.4141 58.5823 91.9981 59.168 91.9981 59.8881V81.0086C91.9981 81.7286 91.4141 82.3144 90.6962 82.3144C89.9783 82.3144 89.3943 81.7286 89.3943 81.0086V61.1939H68.4969V87.6943C68.4969 88.4143 67.9129 89.0001 67.195 89.0001Z" fill="#003D4C"></path><path d="M24.537 50.9824C24.4589 50.9824 24.3808 50.975 24.299 50.9601C21.5092 50.4452 19.0876 48.8708 17.477 46.5278C15.8663 44.1848 15.2637 41.3531 15.7771 38.5549L18.459 23.9373C18.5892 23.2285 19.2662 22.7584 19.9766 22.889C20.6834 23.0195 21.1521 23.6986 21.0219 24.4112L18.34 39.0287C17.9531 41.1404 18.4069 43.2782 19.6233 45.0466C20.8396 46.8151 22.666 48.0015 24.7714 48.3932C25.4781 48.5238 25.9468 49.2028 25.8166 49.9154C25.7013 50.5459 25.1545 50.9862 24.537 50.9862V50.9824Z" fill="#003D4C"></path><path d="M40.7404 33.1973C40.056 33.1973 39.3716 33.0443 38.7318 32.7347L36.8459 31.8206C36.1986 31.5072 35.9271 30.7275 36.2395 30.0783C36.552 29.4291 37.3294 29.1568 37.9767 29.4702L39.8626 30.3842C40.4205 30.6528 41.0566 30.6566 41.6108 30.3842L52.9486 24.9334C53.4247 24.7058 53.752 24.2731 53.8487 23.7507C53.912 23.4075 53.8636 23.0605 53.7148 22.7471C53.3243 21.9338 52.3497 21.5906 51.5388 21.9786L42.2543 26.437C41.2872 26.9033 40.175 26.9033 39.2079 26.4332L37.5563 25.6348C36.9091 25.3214 36.6376 24.5417 36.95 23.8925C37.2625 23.2433 38.0399 22.971 38.6871 23.2844L40.3424 24.0828C40.5916 24.2059 40.878 24.2059 41.1273 24.0828L50.4117 19.6244C52.5134 18.617 55.0428 19.5087 56.0545 21.6092C56.4488 22.4263 56.5716 23.3329 56.4079 24.2246C56.1624 25.5602 55.2883 26.7056 54.0719 27.2913L42.7379 32.7421C42.1018 33.0481 41.4211 33.201 40.7404 33.201V33.1973Z" fill="#003D4C"></path><path d="M47.1978 70.368C46.3497 70.368 45.5127 70.1367 44.7688 69.6852C43.6864 69.0323 42.9238 67.9952 42.6188 66.764L39.5909 54.4931L24.2471 50.9525C23.5478 50.7921 23.1088 50.0907 23.2688 49.3856C23.4287 48.6842 24.128 48.2439 24.8311 48.4043L40.2084 51.9524C41.116 52.1352 41.8748 52.8627 42.1055 53.7992L45.1482 66.1335C45.2858 66.6856 45.628 67.152 46.1116 67.4467C46.5952 67.7415 47.168 67.8273 47.7185 67.6892C48.8531 67.4057 49.5486 66.2491 49.2659 65.1112L45.5648 50.1094C45.3491 49.2363 44.7167 48.5275 43.8761 48.2178C43.8575 48.2103 43.8426 48.2066 43.824 48.1991L30.0275 42.4461C29.4435 42.2036 29.1162 41.5694 29.2575 40.9501L33.472 22.3628C33.7212 21.2622 33.0628 20.1728 31.9767 19.8855L25.0245 18.0425C24.712 17.9903 24.3884 18.0126 24.0834 18.1096L9.76989 22.5419C8.37499 22.9747 7.25535 24.0007 6.69739 25.355L2.72844 35.0553C2.56478 35.4582 2.56478 35.9059 2.73216 36.3088C2.89955 36.7118 3.21573 37.0252 3.61746 37.1931C4.45068 37.5363 5.40665 37.1334 5.74886 36.3014L9.41651 27.3324C9.78848 26.422 10.5399 25.7281 11.4735 25.4334L14.3005 24.5379C14.9849 24.3216 15.7177 24.7021 15.9335 25.3886C16.1492 26.0751 15.7698 26.81 15.0854 27.0264L12.2584 27.9218C12.0612 27.9853 11.9013 28.1308 11.8232 28.321L8.15552 37.2901C7.27023 39.4577 4.78917 40.4986 2.62801 39.6069C1.58277 39.1779 0.764428 38.3608 0.32922 37.3162C-0.105988 36.2678 -0.109708 35.115 0.318061 34.0629L4.28701 24.3626C5.13883 22.2808 6.85734 20.7063 8.9999 20.0422L23.3134 15.61C24.0313 15.3861 24.7976 15.3413 25.5378 15.4794C25.5713 15.4868 25.601 15.4943 25.6345 15.5018L32.6388 17.3597C35.0901 18.0089 36.5705 20.4601 36.0088 22.9411L32.0399 40.4576L44.8023 45.7778C46.4427 46.3934 47.6739 47.7738 48.0942 49.4826L51.7954 64.4844C52.4203 67.0177 50.8729 69.592 48.3472 70.2225C47.9678 70.3158 47.5809 70.3643 47.1978 70.3643V70.368ZM39.6504 54.5043C39.6504 54.5043 39.6504 54.5043 39.6542 54.5043H39.6504Z" fill="#003D4C"></path><path d="M11.3396 70.2002C10.8188 70.2002 10.2943 70.1106 9.78473 69.9353C8.5907 69.5211 7.63101 68.663 7.08049 67.5214C6.52997 66.3835 6.45558 65.0963 6.86847 63.9024C7.28136 62.7048 8.1369 61.7423 9.27141 61.1901L20.1479 55.9035L20.5533 53.0643C20.6538 52.3517 21.3159 51.8517 22.0264 51.9562C22.7368 52.0607 23.2315 52.721 23.1311 53.4336L22.6699 56.6496C22.5732 57.2839 22.1789 57.8174 21.6172 58.086L10.4096 63.5331C9.90005 63.7793 9.51691 64.2121 9.33093 64.7494C9.14494 65.2866 9.17842 65.8649 9.42392 66.376C9.66942 66.8871 10.1009 67.2714 10.6366 67.458C11.1722 67.6445 11.7488 67.6109 12.2584 67.3647L23.477 61.9102C25.3072 61.0185 26.5756 59.2799 26.8694 57.254L27.1856 55.0416C27.2898 54.329 27.9444 53.8328 28.6586 53.9336C29.3691 54.038 29.8638 54.6984 29.7634 55.411L29.4472 57.6271C29.0306 60.5111 27.2228 62.9884 24.6153 64.2569L13.3929 69.7114C12.7419 70.0285 12.0426 70.189 11.3359 70.189L11.3396 70.2002ZM20.4938 55.7393C20.4938 55.7393 20.4864 55.743 20.4827 55.7468L20.4938 55.7393Z" fill="#003D4C"></path><path d="M31.6755 15.3004C28.2756 15.3004 25.1659 12.9984 24.2844 9.54366C23.7785 7.56256 24.0761 5.50685 25.1139 3.74961C26.1517 1.99237 27.8107 0.746257 29.7858 0.238858C31.7573 -0.268541 33.8106 0.0261982 35.5626 1.07084C37.3146 2.11176 38.5569 3.77573 39.0628 5.75682C39.5687 7.73792 39.2711 9.79363 38.2333 11.5509C37.1955 13.3081 35.5365 14.5542 33.5614 15.0616C32.929 15.222 32.2966 15.3004 31.6755 15.3004ZM31.6829 2.61169C31.2663 2.61169 30.846 2.66393 30.4293 2.77212C29.1312 3.10417 28.0376 3.92496 27.3531 5.08153C26.6687 6.2381 26.4753 7.59241 26.8063 8.89822C27.4908 11.5882 30.2322 13.2186 32.9141 12.5321C35.596 11.8456 37.2216 9.09595 36.5371 6.40599C36.2061 5.10392 35.3877 4.00704 34.2346 3.32056C33.4498 2.8542 32.5719 2.61542 31.6829 2.61542V2.61169Z" fill="#003D4C"></path></svg>