<svg xmlns="http://www.w3.org/2000/svg" id="Livello_1" width="100" height="100" viewBox="0 0 100 100"><path d="M88.7,93.1h-14.8c-.7,0-1.3-.6-1.3-1.2v-48.5c0-.4.2-.7.5-1l14.8-11.4c.6-.4,1.4-.3,1.8.2.4.5.3,1.3-.2,1.8l-14.3,11v46.6h12.2v-46.8c0-.7.6-1.2,1.3-1.2s1.3.6,1.3,1.2v48.1c0,.7-.6,1.2-1.3,1.2Z" fill="#003d4c"></path><path d="M26,93.1h-14.8c-.5,0-1-.3-1.2-.8-.2-.5,0-1.1.4-1.4l14.8-11.4c.4-.3.9-.4,1.4-.1.4.2.7.6.7,1.1v7.4c0,.7-.6,1.2-1.3,1.2s-1.3-.6-1.3-1.2v-4.9l-9.8,7.6h11.1c.7,0,1.3.6,1.3,1.2s-.6,1.2-1.3,1.2h0Z" fill="#003d4c"></path><path d="M46.9,93.1h-14.8c-.7,0-1.3-.6-1.3-1.2v-16.2c0-.4.2-.7.5-1l14.8-11.4c.6-.4,1.4-.3,1.8.2.4.5.3,1.3-.2,1.8l-14.3,11v14.3h12.2v-17.3c0-.7.6-1.2,1.3-1.2s1.3.6,1.3,1.2v18.6c0,.7-.6,1.2-1.3,1.2h0Z" fill="#003d4c"></path><path d="M67.8,93.1h-14.8c-.7,0-1.3-.6-1.3-1.2v-32.3c0-.4.2-.7.5-1l14.8-11.4c.4-.3.9-.4,1.4-.1.4.2.7.6.7,1.1v35.4c0,.7-.6,1.2-1.3,1.2s-1.3-.6-1.3-1.2v-32.8l-12.2,9.4v30.5h13.5c.7,0,1.3.6,1.3,1.2s-.6,1.2-1.3,1.2h0Z" fill="#003d4c"></path><path d="M13.6,70.3c-.4,0-.8-.2-1-.5-.4-.5-.3-1.3.2-1.8l38.3-29.1c.6-.4,1.4-.3,1.8.2.4.5.3,1.3-.2,1.8l-38.3,29.1c-.2.2-.5.3-.8.3h0Z" fill="#003d4c"></path><path d="M48.1,55.2c-.1,0-.2,0-.3,0-.7-.2-1.1-.9-.9-1.5l3.3-12.4h-13.1c0,0,0,0,0,0-.7,0-1.3-.6-1.3-1.2,0-.7.6-1.3,1.3-1.3h14.8c0,0,0,0,0,0,.4,0,.8.2,1,.5.2.3.3.7.2,1.1l-3.7,14c-.1.6-.7.9-1.2.9Z" fill="#003d4c"></path><path d="M80.8,38.7c-.7,0-1.3-.6-1.3-1.2V8.2c0-.7.6-1.2,1.3-1.2s1.3.6,1.3,1.2v29.3c0,.7-.6,1.2-1.3,1.2Z" fill="#003d4c"></path><path d="M80.8,25.7h-21.6c-.5,0-.9-.3-1.1-.7-.2-.4-.2-.9.1-1.3l4.9-6.3-4.9-6.3c-.3-.4-.3-.9-.1-1.3.2-.4.7-.7,1.1-.7h21.6c.7,0,1.3.6,1.3,1.2s-.6,1.2-1.3,1.2h-19l4,5.1c.3.4.3,1.1,0,1.5l-4,5.1h19c.7,0,1.3.6,1.3,1.2s-.6,1.2-1.3,1.2Z" fill="#003d4c"></path></svg>