<svg xmlns="http://www.w3.org/2000/svg" width="72" height="63" viewBox="0 0 72 63" fill="none"><g clip-path="url(#clip0_149_632)"><path d="M68.5169 63H3.48312C1.56331 63 0 61.4402 0 59.5246V3.47538C0 1.55984 1.56331 0 3.48312 0H68.5169C70.4367 0 72 1.55984 72 3.47538V59.5246C72 61.4402 70.4367 63 68.5169 63ZM3.48312 2.04091C2.69123 2.04091 2.04545 2.68526 2.04545 3.47538V59.5246C2.04545 60.3147 2.69123 60.9591 3.48312 60.9591H68.5169C69.3088 60.9591 69.9545 60.3147 69.9545 59.5246V3.47538C69.9545 2.68526 69.3088 2.04091 68.5169 2.04091H3.48312Z" fill="#003D4C"></path><path d="M70.9773 12.919H1.02273C0.458766 12.919 0 12.4612 0 11.8985C0 11.3358 0.458766 10.8781 1.02273 10.8781H70.9773C71.5412 10.8781 72 11.3358 72 11.8985C72 12.4612 71.5412 12.919 70.9773 12.919Z" fill="#003D4C"></path><path d="M61.1359 26.9546H9.21354C7.59471 26.9546 6.27686 25.6397 6.27686 24.0244V19.0796C6.27686 17.4644 7.59471 16.1494 9.21354 16.1494H61.1359C62.7548 16.1494 64.0726 17.4644 64.0726 19.0796V24.0244C64.0726 25.6397 62.7548 26.9546 61.1359 26.9546ZM9.21354 18.1933C8.72264 18.1933 8.32231 18.5927 8.32231 19.0825V24.0274C8.32231 24.5172 8.72264 24.9166 9.21354 24.9166H61.1359C61.6269 24.9166 62.0272 24.5172 62.0272 24.0274V19.0825C62.0272 18.5927 61.6269 18.1933 61.1359 18.1933H9.21354Z" fill="#003D4C"></path><path d="M19.6687 46.0954H8.72556C7.37556 46.0954 6.27686 44.9992 6.27686 43.6522V32.7333C6.27686 31.3863 7.37556 30.29 8.72556 30.29H19.6687C21.0187 30.29 22.1174 31.3863 22.1174 32.7333V43.6522C22.1174 44.9992 21.0187 46.0954 19.6687 46.0954ZM8.72556 32.3309C8.50348 32.3309 8.32231 32.5117 8.32231 32.7333V43.6522C8.32231 43.8738 8.50348 44.0545 8.72556 44.0545H19.6687C19.8908 44.0545 20.072 43.8738 20.072 43.6522V32.7333C20.072 32.5117 19.8908 32.3309 19.6687 32.3309H8.72556Z" fill="#003D4C"></path><path d="M29.3378 46.0954C28.0784 46.0954 27.0527 45.0721 27.0527 43.8154V32.5729C27.0527 31.3134 28.0784 30.29 29.3378 30.29H40.6053C41.8677 30.29 42.8933 31.3134 42.8933 32.5729V38.3808C42.8933 38.9435 42.4346 39.4012 41.8706 39.4012C41.3066 39.4012 40.8479 38.9435 40.8479 38.3808V32.5729C40.8479 32.4388 40.7397 32.3309 40.6053 32.3309H29.3378C29.2063 32.3309 29.0982 32.4388 29.0982 32.5729V43.8154C29.0982 43.9466 29.2063 44.0545 29.3378 44.0545C29.9018 44.0545 30.3605 44.5123 30.3605 45.075C30.3605 45.6377 29.9018 46.0954 29.3378 46.0954Z" fill="#003D4C"></path><path d="M61.2146 46.0954H55.1542C54.5903 46.0954 54.1315 45.6377 54.1315 45.075C54.1315 44.5123 54.5903 44.0545 55.1542 44.0545H61.2146C61.4367 44.0545 61.6179 43.8738 61.6179 43.6522V32.7333C61.6179 32.5117 61.4367 32.3309 61.2146 32.3309H50.2715C50.0494 32.3309 49.8682 32.5117 49.8682 32.7333V40.2234C49.8682 40.7862 49.4094 41.2439 48.8455 41.2439C48.2815 41.2439 47.8228 40.7862 47.8228 40.2234V32.7333C47.8228 31.3863 48.9215 30.29 50.2715 30.29H61.2146C62.5646 30.29 63.6633 31.3863 63.6633 32.7333V43.6522C63.6633 44.9992 62.5646 46.0954 61.2146 46.0954Z" fill="#003D4C"></path><path d="M8.66708 7.76421H6.34695C5.78299 7.76421 5.32422 7.30646 5.32422 6.74375C5.32422 6.18104 5.78299 5.7233 6.34695 5.7233H8.66708C9.23104 5.7233 9.6898 6.18104 9.6898 6.74375C9.6898 7.30646 9.23104 7.76421 8.66708 7.76421Z" fill="#003D4C"></path><path d="M17.6554 7.76421H15.3352C14.7713 7.76421 14.3125 7.30646 14.3125 6.74375C14.3125 6.18104 14.7713 5.7233 15.3352 5.7233H17.6554C18.2193 5.7233 18.6781 6.18104 18.6781 6.74375C18.6781 7.30646 18.2193 7.76421 17.6554 7.76421Z" fill="#003D4C"></path><path d="M26.6466 7.76421H24.3264C23.7625 7.76421 23.3037 7.30646 23.3037 6.74375C23.3037 6.18104 23.7625 5.7233 24.3264 5.7233H26.6466C27.2105 5.7233 27.6693 6.18104 27.6693 6.74375C27.6693 7.30646 27.2105 7.76421 26.6466 7.76421Z" fill="#003D4C"></path><path d="M47.6854 59.2068C47.4224 59.2068 47.1624 59.1077 46.9607 58.9065L45.2309 57.1805C44.8305 56.781 44.8305 56.1367 45.2309 55.7373C45.6312 55.3378 46.277 55.3378 46.6773 55.7373L47.6854 56.7431L49.5322 54.9005L43.6529 49.0314C43.4192 48.7982 43.3111 48.4629 43.3695 48.1363C43.425 47.8098 43.6383 47.5299 43.9364 47.387L46.8497 46.0021L34.6179 41.8503L38.7701 54.0579L40.1581 51.151C40.4007 50.6437 41.0114 50.4251 41.5227 50.67C42.0341 50.912 42.2503 51.5213 42.0049 52.0316L39.5328 57.2038C39.3546 57.5799 38.9688 57.8044 38.5481 57.784C38.1331 57.7607 37.7737 57.4866 37.6393 57.093L32.0085 40.5471C31.8828 40.1797 31.9792 39.7715 32.2539 39.4974C32.5315 39.2234 32.9377 39.1272 33.3059 39.2525L49.8857 44.8796C50.2802 45.0137 50.552 45.3724 50.5783 45.7864C50.6016 46.2004 50.3737 46.5882 49.9968 46.766L46.1192 48.6087L51.6974 54.1774C51.8903 54.3699 51.9955 54.6293 51.9955 54.9005C51.9955 55.1716 51.8874 55.4311 51.6945 55.6206L48.4013 58.9036C48.2026 59.1019 47.9396 59.201 47.6796 59.201L47.6854 59.2068Z" fill="#003D4C"></path></g><defs><clipPath id="clip0_149_632"><rect width="72" height="63" fill="white"></rect></clipPath></defs></svg>