<svg xmlns="http://www.w3.org/2000/svg" width="84" height="98" viewBox="0 0 84 98" fill="none"><g clip-path="url(#clip0_65_1005)"><path d="M69.1641 37.7716C65.6313 37.7716 62.7573 34.8798 62.7573 31.3299C62.7573 30.9195 62.7959 30.5131 62.8729 30.1143H55.4106C54.6671 30.1143 54.0622 29.5065 54.0622 28.7594V19.3214C54.0622 18.8336 54.3204 18.3845 54.7403 18.1445C55.1602 17.9045 55.6764 17.9045 56.0925 18.1523C56.6588 18.4852 57.306 18.6633 57.9687 18.6633C60.0182 18.6633 61.6825 16.987 61.6825 14.9314C61.6825 12.8758 60.0144 11.1995 57.9687 11.1995C57.2868 11.1995 56.6396 11.3815 56.054 11.7415C55.6379 11.997 55.1178 12.0048 54.694 11.7647C54.2703 11.5247 54.0083 11.0718 54.0083 10.584V1.36276C54.0083 0.615615 54.6131 0.00783312 55.3567 0.00783312H55.4183C62.9808 -0.166372 70.158 2.66349 75.5862 7.99029C81.0182 13.321 84.0077 20.4556 84.0077 28.0819C84.0077 28.2987 84.0077 28.5155 84 28.7246C83.9846 29.464 83.3875 30.0563 82.6517 30.0563H75.4552C75.5399 30.4705 75.5823 30.8963 75.5823 31.326C75.5823 34.8798 72.7045 37.7677 69.1718 37.7677L69.1641 37.7716ZM56.7551 27.4045H64.7992C65.2846 27.4045 65.7315 27.6638 65.9703 28.0858C66.2092 28.5078 66.2053 29.0265 65.9626 29.4446C65.6313 30.0098 65.4541 30.6602 65.4541 31.326C65.4541 33.3855 67.1184 35.0579 69.1641 35.0579C71.2097 35.0579 72.8779 33.3816 72.8779 31.326C72.8779 30.6447 72.6929 29.9827 72.3462 29.4059C72.092 28.9878 72.0842 28.4652 72.3231 28.0355C72.562 27.6096 73.0127 27.3425 73.4981 27.3425H81.2956C81.1107 20.7305 78.4293 14.5675 73.6985 9.92203C69.0947 5.40432 63.1002 2.86867 56.7012 2.70995V8.60969C57.1173 8.52452 57.541 8.48194 57.9687 8.48194C61.5053 8.48194 64.3792 11.3737 64.3792 14.9237C64.3792 18.4736 61.5014 21.3654 57.9687 21.3654C57.5603 21.3654 57.1558 21.3267 56.759 21.2492V27.3929L56.7551 27.4045Z" fill="#003D4C"></path><path d="M48.2681 87.0716H34.0523C31.2708 87.0716 29.0094 84.7992 29.0094 82.0042V77.9317C29.0094 71.459 24.9065 66.1902 20.896 61.8893C15.4023 56.0012 12.7557 50.055 12.5746 43.1642V43.0907C12.5707 42.8623 12.5669 42.6339 12.5669 42.4016C12.5669 34.7869 15.5487 27.66 20.9692 22.3332C26.3858 17.0064 33.5361 14.161 41.1294 14.3275C41.8613 14.343 42.4469 14.9469 42.4469 15.6824V22.9371C42.863 22.8519 43.2868 22.8093 43.7144 22.8093C47.251 22.8093 50.125 25.7011 50.125 29.251C50.125 32.8009 47.2471 35.6927 43.7144 35.6927C43.306 35.6927 42.9015 35.654 42.5047 35.5766V41.7202H50.5487C51.0342 41.7202 51.481 41.9796 51.7199 42.4016C51.9588 42.8235 51.9549 43.3423 51.7122 43.7604C51.3809 44.3256 51.2037 44.9759 51.2037 45.6418C51.2037 47.7013 52.8679 49.3736 54.9136 49.3736C56.9593 49.3736 58.6274 47.6974 58.6274 45.6418C58.6274 44.9605 58.4425 44.2985 58.0958 43.7217C57.8415 43.3036 57.8338 42.781 58.0727 42.3513C58.3115 41.9254 58.7623 41.6583 59.2477 41.6583H68.3974C68.7595 41.6583 69.1062 41.8054 69.3605 42.0648C69.6148 42.3242 69.7535 42.6764 69.7458 43.0442C69.5917 49.9853 66.9488 55.9702 61.4282 61.8816C57.4139 66.1786 53.311 71.4474 53.311 77.9239V81.9964C53.311 84.7915 51.0496 87.0639 48.2719 87.0639L48.2681 87.0716ZM39.7502 17.0451C33.3897 17.2309 27.4299 19.7704 22.8531 24.2726C17.9565 29.0884 15.2636 35.5263 15.2636 42.4054C15.2636 42.6222 15.2636 42.839 15.2714 43.0558V43.1139C15.437 49.3659 17.7793 54.5921 22.8646 60.0389C27.2372 64.7269 31.71 70.5183 31.71 77.9355V82.0081C31.71 83.3088 32.7617 84.3656 34.0562 84.3656H48.2719C49.5625 84.3656 50.6142 83.3088 50.6142 82.0081V77.9355C50.6142 70.5144 55.087 64.723 59.4634 60.0389C64.1943 54.9753 66.5482 50.0937 66.9835 44.3798H61.2009C61.2857 44.794 61.328 45.2198 61.328 45.6495C61.328 49.2033 58.4502 52.0912 54.9175 52.0912C51.3847 52.0912 48.5108 49.1994 48.5108 45.6495C48.5108 45.2392 48.5493 44.8327 48.6263 44.434H41.164C40.4205 44.434 39.8157 43.8262 39.8157 43.079V33.641C39.8157 33.1571 40.0738 32.708 40.4937 32.4641C40.9136 32.2241 41.4299 32.2241 41.8459 32.4719C42.4122 32.8048 43.0595 32.9829 43.7221 32.9829C45.7716 32.9829 47.4359 31.3067 47.4359 29.251C47.4359 27.1954 45.7678 25.5192 43.7221 25.5192C43.0479 25.5192 42.3853 25.705 41.8074 26.0611C41.3913 26.3166 40.8712 26.3244 40.4475 26.0844C40.0237 25.8444 39.7617 25.3914 39.7617 24.9036V17.0451H39.7502Z" fill="#003D4C"></path><path d="M41.16 98.0001C37.2959 98.0001 34.1484 94.8412 34.1484 90.9545V89.6306C34.1484 88.8834 34.7533 88.2756 35.4968 88.2756C36.2403 88.2756 36.8452 88.8834 36.8452 89.6306V90.9545C36.8452 93.3431 38.7791 95.2903 41.16 95.2903C43.5408 95.2903 45.4748 93.3469 45.4748 90.9545V89.6306C45.4748 88.8834 46.0796 88.2756 46.8232 88.2756C47.5667 88.2756 48.1716 88.8834 48.1716 89.6306V90.9545C48.1716 94.8412 45.0279 98.0001 41.16 98.0001Z" fill="#003D4C"></path><path d="M52.4788 74.0062H29.6257C28.8822 74.0062 28.2773 73.3985 28.2773 72.6513C28.2773 71.9042 28.8822 71.2964 29.6257 71.2964H52.4788C53.2223 71.2964 53.8272 71.9042 53.8272 72.6513C53.8272 73.3985 53.2223 74.0062 52.4788 74.0062Z" fill="#003D4C"></path><path d="M41.0985 17.0218C41.0022 17.0218 40.9059 17.0102 40.8173 16.9908C40.1623 16.8979 39.6538 16.3327 39.6538 15.6475C39.6538 14.9004 40.2587 14.2926 41.0022 14.2926H41.0985C41.842 14.2926 42.4469 14.9004 42.4469 15.6475C42.4469 16.3947 41.842 17.0179 41.0985 17.0179V17.0218Z" fill="#003D4C"></path><path d="M68.4472 44.3798H68.3933C67.6498 44.3798 67.0449 43.7721 67.0449 43.0249C67.0449 42.7733 67.1143 42.541 67.2298 42.3397C67.4456 41.8868 67.9117 41.5693 68.4472 41.5693C69.1908 41.5693 69.7956 42.1771 69.7956 42.9243V43.0249C69.7956 43.7721 69.1908 44.3798 68.4472 44.3798Z" fill="#003D4C"></path><path d="M41.2101 69.4808C40.4665 69.4808 39.8617 68.873 39.8617 68.1259V63.2211C39.4495 63.3062 39.0257 63.3488 38.5981 63.3488C35.0653 63.3488 32.1875 60.4609 32.1875 56.9071C32.1875 53.3533 35.0615 50.4654 38.5981 50.4654C39.0064 50.4654 39.4109 50.5041 39.8078 50.5815V43.083C39.8078 42.3358 40.4126 41.728 41.1561 41.728C41.8997 41.728 42.5045 42.3358 42.5045 43.083V52.521C42.5045 53.0049 42.2464 53.454 41.8265 53.6979C41.4065 53.9379 40.8903 53.9379 40.4742 53.6901C39.9079 53.3572 39.2568 53.1791 38.5981 53.1791C36.5485 53.1791 34.8843 54.8515 34.8843 56.911C34.8843 58.9705 36.5485 60.6428 38.5981 60.6428C39.2761 60.6428 39.9349 60.457 40.5089 60.1047C40.925 59.8492 41.4451 59.8376 41.8727 60.0776C42.3003 60.3176 42.5623 60.7706 42.5623 61.2583V68.1298C42.5623 68.8769 41.9575 69.4847 41.2139 69.4847L41.2101 69.4808Z" fill="#003D4C"></path><path d="M23.069 44.4882H18.5115C17.7679 44.4882 17.1631 43.8804 17.1631 43.1333C17.1631 42.3862 17.7679 41.7784 18.5115 41.7784H21.1158C21.031 41.3641 20.9886 40.9383 20.9886 40.5086C20.9886 36.9587 23.8626 34.0669 27.3992 34.0669C30.9358 34.0669 33.8098 36.9548 33.8098 40.5086C33.8098 40.919 33.7712 41.3254 33.6942 41.7242H41.1565C41.9 41.7242 42.5049 42.332 42.5049 43.0791C42.5049 43.8262 41.9 44.434 41.1565 44.434H31.7641C31.2825 44.434 30.8356 44.1747 30.5929 43.7527C30.3541 43.3307 30.3541 42.812 30.6006 42.3939C30.9319 41.8248 31.1092 41.1706 31.1092 40.5086C31.1092 38.4491 29.4449 36.7768 27.3953 36.7768C25.3458 36.7768 23.6815 38.4491 23.6815 40.5086C23.6815 41.1899 23.8664 41.8519 24.217 42.4287C24.4713 42.8468 24.4828 43.3694 24.244 43.7991C24.0051 44.2289 23.5544 44.4921 23.069 44.4921V44.4882Z" fill="#003D4C"></path><path d="M41.0525 10.189C40.3089 10.189 39.7041 9.58124 39.7041 8.83409V3.07758C39.7041 2.33044 40.3089 1.72266 41.0525 1.72266C41.796 1.72266 42.4009 2.33044 42.4009 3.07758V8.83796C42.4009 9.58511 41.796 10.1929 41.0525 10.1929V10.189Z" fill="#003D4C"></path><path d="M16.9857 20.2968C16.639 20.2968 16.2961 20.1651 16.0341 19.898L11.9813 15.8255C11.4535 15.2951 11.4535 14.4396 11.9813 13.9092C12.5091 13.3789 13.3605 13.3789 13.8883 13.9092L17.9411 17.9818C18.4689 18.5121 18.4689 19.3677 17.9411 19.898C17.6791 20.1613 17.3324 20.2968 16.9895 20.2968H16.9857Z" fill="#003D4C"></path><path d="M7.07705 44.5385H1.34838C0.604843 44.5385 0 43.9307 0 43.1835C0 42.4364 0.604843 41.8286 1.34838 41.8286H7.07705C7.82058 41.8286 8.42543 42.4364 8.42543 43.1835C8.42543 43.9307 7.82058 44.5385 7.07705 44.5385Z" fill="#003D4C"></path><path d="M13.0833 72.7944C12.7365 72.7944 12.3937 72.6628 12.1317 72.3957C11.6039 71.8653 11.6039 71.0098 12.1317 70.4795L16.1845 66.4069C16.7123 65.8766 17.5637 65.8766 18.0915 66.4069C18.6193 66.9373 18.6193 67.7928 18.0915 68.3232L14.0387 72.3957C13.7767 72.6589 13.43 72.7944 13.0871 72.7944H13.0833Z" fill="#003D4C"></path><path d="M69.3797 72.6434C69.033 72.6434 68.6901 72.5118 68.4282 72.2447L64.3753 68.1722C63.8475 67.6418 63.8475 66.7863 64.3753 66.2559C64.9031 65.7256 65.7545 65.7256 66.2823 66.2559L70.3352 70.3285C70.863 70.8588 70.863 71.7143 70.3352 72.2447C70.0732 72.5079 69.7265 72.6434 69.3836 72.6434H69.3797Z" fill="#003D4C"></path><path d="M80.9642 44.3255H75.2317C74.4881 44.3255 73.8833 43.7177 73.8833 42.9705C73.8833 42.2234 74.4881 41.6156 75.2317 41.6156H80.9642C81.7077 41.6156 82.3126 42.2234 82.3126 42.9705C82.3126 43.7177 81.7077 44.3255 80.9642 44.3255Z" fill="#003D4C"></path></g><defs><clipPath id="clip0_65_1005"><rect width="84" height="98" fill="white"></rect></clipPath></defs></svg>