<svg xmlns="http://www.w3.org/2000/svg" width="88" height="71" viewBox="0 0 88 71" fill="none"><g clip-path="url(#clip0_149_695)"><path d="M65.1712 21.1796C64.4657 21.1796 63.8918 20.598 63.8918 19.883V11.5623C63.8918 11.0325 63.4677 10.6028 62.945 10.6028H59.9694C59.2639 10.6028 58.6899 10.0211 58.6899 9.30613C58.6899 8.59112 59.2639 8.00949 59.9694 8.00949H62.945C64.8788 8.00949 66.4507 9.6025 66.4507 11.5623V19.883C66.4507 20.598 65.8767 21.1796 65.1712 21.1796Z" fill="#003D4C"></path><path d="M47.0944 52.7952H3.50567C1.57189 52.7952 0 51.2022 0 49.2425V11.5623C0 9.6025 1.57189 8.00949 3.50567 8.00949H27.6615C28.3671 8.00949 28.941 8.59112 28.941 9.30613C28.941 10.0211 28.3671 10.6028 27.6615 10.6028H3.50567C2.98293 10.6028 2.55888 11.0325 2.55888 11.5623V49.2462C2.55888 49.7759 2.98293 50.2057 3.50567 50.2057H47.0981C47.8036 50.2057 48.3775 50.7873 48.3775 51.5023C48.3775 52.2173 47.8036 52.799 47.0981 52.799L47.0944 52.7952Z" fill="#003D4C"></path><path d="M25.6837 61.3047C25.585 61.3047 25.49 61.2936 25.3913 61.2714C24.704 61.1084 24.2763 60.4082 24.4372 59.7117L26.4148 51.1947C26.5757 50.4982 27.2666 50.0684 27.9538 50.2277C28.6411 50.3907 29.0688 51.0909 28.9079 51.7874L26.9303 60.3044C26.7914 60.9009 26.265 61.3047 25.6874 61.3047H25.6837Z" fill="#003D4C"></path><path d="M40.7663 61.3049C40.1851 61.3049 39.6623 60.9011 39.5234 60.3046L37.5458 51.7876C37.3849 51.0911 37.809 50.3909 38.4999 50.2279C39.1871 50.0649 39.878 50.4946 40.0389 51.1948L42.0165 59.7119C42.1773 60.4083 41.7533 61.1085 41.0624 61.2715C40.9637 61.2937 40.865 61.3049 40.77 61.3049H40.7663Z" fill="#003D4C"></path><path d="M44.6963 65.8801H21.7541C21.0485 65.8801 20.4746 65.2985 20.4746 64.5835C20.4746 63.8685 21.0485 63.2869 21.7541 63.2869H44.6963C45.4018 63.2869 45.9757 63.8685 45.9757 64.5835C45.9757 65.2985 45.4018 65.8801 44.6963 65.8801Z" fill="#003D4C"></path><path d="M35.0054 48.3793C34.2999 48.3793 33.7259 47.7977 33.7259 47.0827V39.577C33.7259 37.1097 31.9932 34.9684 29.6025 34.4868L28.9628 34.3571C28.0635 34.1756 27.146 34.0867 26.2321 34.0867H17.1846C16.267 34.0867 15.3495 34.1793 14.4502 34.3608L13.8178 34.4868C11.4271 34.9647 9.69072 37.106 9.69072 39.577V47.0827C9.69072 47.7977 9.1168 48.3793 8.41128 48.3793C7.70576 48.3793 7.13184 47.7977 7.13184 47.0827V39.577C7.13184 35.8723 9.73459 32.6641 13.3207 31.9417L13.9531 31.8157C15.0169 31.6008 16.1025 31.4934 17.1882 31.4934H26.2357C27.3178 31.4934 28.4035 31.6008 29.4672 31.8157L30.107 31.9454C33.6894 32.6641 36.2921 35.876 36.2921 39.577V47.0827C36.2921 47.7977 35.7182 48.3793 35.0127 48.3793H35.0054Z" fill="#003D4C"></path><path d="M21.7101 31.8453C17.9778 31.8453 14.8267 28.8927 14.5342 25.1214L14.3003 22.0946C14.1394 20.0052 14.8486 17.9269 16.2523 16.3895C17.6561 14.852 19.6447 13.9703 21.7137 13.9703C23.7828 13.9703 25.7714 14.852 27.1751 16.3895C28.5788 17.9269 29.2917 20.0089 29.1272 22.0946L28.8932 25.1214C28.6008 28.8927 25.446 31.8453 21.7174 31.8453H21.7101ZM21.7101 16.5599C20.3356 16.5599 19.0635 17.123 18.1276 18.1455C17.1918 19.168 16.7385 20.4979 16.8482 21.8872L17.0821 24.9139C17.2722 27.3442 19.3047 29.2484 21.7101 29.2484C24.1154 29.2484 26.1479 27.3442 26.338 24.9139L26.5719 21.8872C26.678 20.4979 26.2247 19.168 25.2925 18.1455C24.3603 17.123 23.0882 16.5599 21.7101 16.5599Z" fill="#003D4C"></path><path d="M13.7409 48.3793C13.0353 48.3793 12.4614 47.7977 12.4614 47.0827V42.6741C12.4614 41.9591 13.0353 41.3775 13.7409 41.3775C14.4464 41.3775 15.0203 41.9591 15.0203 42.6741V47.0827C15.0203 47.7977 14.4464 48.3793 13.7409 48.3793Z" fill="#003D4C"></path><path d="M29.6789 48.3793C28.9733 48.3793 28.3994 47.7977 28.3994 47.0827V42.6741C28.3994 41.9591 28.9733 41.3775 29.6789 41.3775C30.3844 41.3775 30.9583 41.9591 30.9583 42.6741V47.0827C30.9583 47.7977 30.3844 48.3793 29.6789 48.3793Z" fill="#003D4C"></path><path d="M86.7208 71H51.8761C51.1706 71 50.5967 70.4184 50.5967 69.7034V57.804C50.5967 53.1435 53.8721 49.1017 58.383 48.1978L59.2128 48.0311C60.58 47.7569 61.9801 47.6161 63.3728 47.6161H75.2241C76.6169 47.6161 78.0133 47.7569 79.3805 48.0311L80.2176 48.1978C84.7285 49.1054 88.0002 53.1435 88.0002 57.804V69.7071C88.0002 70.4221 87.4263 71.0037 86.7208 71.0037V71ZM53.1519 68.4068H85.4377V57.8003C85.4377 54.3735 83.0324 51.406 79.7168 50.7392L78.8796 50.5725C77.677 50.3317 76.4487 50.2094 75.2241 50.2094H63.3728C62.1482 50.2094 60.9163 50.3317 59.71 50.5725L58.8802 50.7392C55.5609 51.406 53.1556 54.3735 53.1556 57.8003V68.4031L53.1519 68.4068Z" fill="#003D4C"></path><path d="M69.2987 45.786C64.6159 45.786 60.6569 42.0777 60.2914 37.3468L59.9843 33.3791C59.7796 30.7562 60.6752 28.1407 62.4372 26.2068C64.1992 24.273 66.7032 23.1653 69.2987 23.1653C71.8941 23.1653 74.3981 24.273 76.1601 26.2068C77.9221 28.1407 78.8177 30.7525 78.613 33.3791L78.3059 37.3468C77.9404 42.0777 73.9814 45.786 69.2987 45.786ZM69.2987 25.7586C67.3832 25.7586 65.6139 26.544 64.3161 27.9666C63.0184 29.3892 62.3824 31.2415 62.5359 33.1753L62.843 37.143C63.1062 40.5365 65.9429 43.1928 69.2987 43.1928C72.6545 43.1928 75.4912 40.5365 75.7544 37.143L76.0614 33.1753C76.2113 31.2415 75.5789 29.3929 74.2775 27.9666C72.9798 26.544 71.2069 25.7586 69.295 25.7586H69.2987Z" fill="#003D4C"></path><path d="M58.8546 71C58.1491 71 57.5752 70.4184 57.5752 69.7034V61.8606C57.5752 61.1456 58.1491 60.564 58.8546 60.564C59.5602 60.564 60.1341 61.1456 60.1341 61.8606V69.7034C60.1341 70.4184 59.5602 71 58.8546 71Z" fill="#003D4C"></path><path d="M79.7389 71C79.0334 71 78.4595 70.4184 78.4595 69.7034V61.8606C78.4595 61.1456 79.0334 60.564 79.7389 60.564C80.4444 60.564 81.0184 61.1456 81.0184 61.8606V69.7034C81.0184 70.4184 80.4444 71 79.7389 71Z" fill="#003D4C"></path><path d="M35.9232 25.4733C35.6381 25.4733 35.3529 25.377 35.1226 25.1881C34.7351 24.8732 34.5633 24.3545 34.684 23.8655L35.7368 19.557C33.7445 18.8864 32.3042 16.9822 32.3042 14.7409V5.07169C32.3042 2.27467 34.5487 0 37.3086 0H52.088C54.848 0 57.0925 2.27467 57.0925 5.07169V14.7446C57.0925 17.5416 54.848 19.8163 52.088 19.8163H47.5296L36.4935 25.3436C36.3143 25.4326 36.1206 25.477 35.9268 25.477L35.9232 25.4733ZM37.305 2.59327C35.9561 2.59327 34.8594 3.70467 34.8594 5.07169V14.7446C34.8594 16.1116 35.9561 17.223 37.305 17.223C37.6998 17.223 38.069 17.4082 38.3139 17.7194C38.5552 18.0343 38.6429 18.4418 38.5479 18.8308L37.8277 21.7798L46.6632 17.3564C46.8387 17.2675 47.0324 17.223 47.2298 17.223H52.0844C53.4333 17.223 54.5299 16.1116 54.5299 14.7446V5.07169C54.5299 3.70467 53.4333 2.59327 52.0844 2.59327H37.305Z" fill="#003D4C"></path></g><defs><clipPath id="clip0_149_695"><rect width="88" height="71" fill="white"></rect></clipPath></defs></svg>