<svg xmlns="http://www.w3.org/2000/svg" width="83" height="73" viewBox="0 0 83 73" fill="none"><g clip-path="url(#clip0_149_646)"><path d="M52.0123 16.8928H30.9878C29.4364 16.8928 28.1748 15.6319 28.1748 14.0813V2.81149C28.1748 1.26091 29.4364 0 30.9878 0H52.0123C53.5638 0 54.8254 1.26091 54.8254 2.81149V14.0813C54.8254 15.6319 53.5638 16.8928 52.0123 16.8928ZM30.9878 2.38551C30.7526 2.38551 30.5616 2.57635 30.5616 2.81149V14.0813C30.5616 14.3165 30.7526 14.5073 30.9878 14.5073H52.0123C52.2476 14.5073 52.4385 14.3165 52.4385 14.0813V2.81149C52.4385 2.57635 52.2476 2.38551 52.0123 2.38551H30.9878Z" fill="#003D4C"></path><path d="M41.5001 22.7884C40.842 22.7884 40.3066 22.2534 40.3066 21.5957V15.9693C40.3066 15.3116 40.842 14.7765 41.5001 14.7765C42.1581 14.7765 42.6935 15.3116 42.6935 15.9693V21.5957C42.6935 22.2534 42.1581 22.7884 41.5001 22.7884Z" fill="#003D4C"></path><path d="M49.0389 23.2212H33.961C33.3029 23.2212 32.7676 22.6862 32.7676 22.0285C32.7676 21.3708 33.3029 20.8357 33.961 20.8357H49.0389C49.697 20.8357 50.2323 21.3708 50.2323 22.0285C50.2323 22.6862 49.697 23.2212 49.0389 23.2212Z" fill="#003D4C"></path><path d="M23.8375 63.7204H2.81304C1.26161 63.7204 0 62.4594 0 60.9089V49.639C0 48.0885 1.26161 46.8275 2.81304 46.8275H23.8375C25.389 46.8275 26.6506 48.0885 26.6506 49.639V60.9089C26.6506 62.4594 25.389 63.7204 23.8375 63.7204ZM2.81304 49.2165C2.57777 49.2165 2.38682 49.4073 2.38682 49.6424V60.9123C2.38682 61.1474 2.57777 61.3383 2.81304 61.3383H23.8375C24.0728 61.3383 24.2637 61.1474 24.2637 60.9123V49.6424C24.2637 49.4073 24.0728 49.2165 23.8375 49.2165H2.81304Z" fill="#003D4C"></path><path d="M13.3252 69.909C12.6672 69.909 12.1318 69.374 12.1318 68.7163V62.5276C12.1318 61.8699 12.6672 61.3348 13.3252 61.3348C13.9833 61.3348 14.5187 61.8699 14.5187 62.5276V68.7163C14.5187 69.374 13.9833 69.909 13.3252 69.909Z" fill="#003D4C"></path><path d="M20.8641 70.0522H5.78277C5.12469 70.0522 4.58936 69.5172 4.58936 68.8594C4.58936 68.2017 5.12469 67.6667 5.78277 67.6667H20.8607C21.5187 67.6667 22.0541 68.2017 22.0541 68.8594C22.0541 69.5172 21.5187 70.0522 20.8607 70.0522H20.8641Z" fill="#003D4C"></path><path d="M80.1871 63.7204H59.1626C57.6112 63.7204 56.3496 62.4594 56.3496 60.9089V49.639C56.3496 48.0885 57.6112 46.8275 59.1626 46.8275H80.1871C81.7386 46.8275 83.0002 48.0885 83.0002 49.639V60.9089C83.0002 62.4594 81.7386 63.7204 80.1871 63.7204ZM59.1626 49.2165C58.9274 49.2165 58.7364 49.4073 58.7364 49.6424V60.9123C58.7364 61.1474 58.9274 61.3383 59.1626 61.3383H80.1871C80.4224 61.3383 80.6134 61.1474 80.6134 60.9123V49.6424C80.6134 49.4073 80.4224 49.2165 80.1871 49.2165H59.1626Z" fill="#003D4C"></path><path d="M69.6749 69.9091C69.0168 69.9091 68.4814 69.374 68.4814 68.7163V63.0899C68.4814 62.4322 69.0168 61.8972 69.6749 61.8972C70.3329 61.8972 70.8683 62.4322 70.8683 63.0899V68.7163C70.8683 69.374 70.3329 69.9091 69.6749 69.9091Z" fill="#003D4C"></path><path d="M77.2137 70.0522H62.1358C61.4777 70.0522 60.9424 69.5172 60.9424 68.8594C60.9424 68.2017 61.4777 67.6667 62.1358 67.6667H77.2137C77.8718 67.6667 78.4071 68.2017 78.4071 68.8594C78.4071 69.5172 77.8718 70.0522 77.2137 70.0522Z" fill="#003D4C"></path><path d="M41.4966 40.2606C40.8386 40.2606 40.3032 39.729 40.3032 39.0712V27.0108C40.3032 26.3531 40.8386 25.818 41.4966 25.818C42.1547 25.818 42.69 26.3531 42.69 27.0108V39.0678C42.69 39.7255 42.1547 40.264 41.4966 40.264V40.2606Z" fill="#003D4C"></path><path d="M53.4853 48.5417C53.25 48.5417 53.0147 48.4736 52.8068 48.3304L40.8556 40.0732C40.5249 39.8619 40.3032 39.4904 40.3032 39.0678C40.3032 38.4101 40.8386 37.8717 41.4966 37.8717C41.7524 37.8717 41.9876 37.9501 42.182 38.0864L54.1638 46.3641C54.706 46.739 54.8424 47.4819 54.4673 48.0237C54.2354 48.3577 53.8638 48.5383 53.4853 48.5383V48.5417Z" fill="#003D4C"></path><path d="M29.7091 48.344C29.3306 48.344 28.9555 48.1634 28.7237 47.826C28.352 47.2842 28.4884 46.5413 29.034 46.1664L40.8215 38.0829C41.0192 37.9466 41.2545 37.8751 41.4966 37.8751C42.1547 37.8751 42.6934 38.4101 42.6934 39.0678C42.6934 39.5006 42.465 39.8789 42.1206 40.0902L30.3842 48.1362C30.1796 48.2793 29.9444 48.344 29.7091 48.344Z" fill="#003D4C"></path><path d="M61.5836 14.6164C61.3313 14.6164 61.0756 14.5346 60.8574 14.371C60.2061 13.87 59.531 13.3929 58.8456 12.9465C58.2932 12.5887 58.1364 11.8492 58.4978 11.2971C58.8592 10.745 59.5992 10.5883 60.1481 10.9495C60.8846 11.4266 61.6109 11.9446 62.3099 12.4796C62.8316 12.8818 62.9305 13.6315 62.5281 14.1529C62.2929 14.4596 61.9383 14.6198 61.5802 14.6198L61.5836 14.6164Z" fill="#003D4C"></path><path d="M74.2303 37.749C73.6166 37.749 73.0949 37.2787 73.0437 36.6551C72.9244 35.2101 72.7028 33.7618 72.3856 32.3509C72.2424 31.7068 72.6448 31.0696 73.2858 30.9264C73.9269 30.7833 74.5679 31.1854 74.7111 31.8295C75.0521 33.346 75.2908 34.9068 75.4203 36.4608C75.4749 37.1185 74.9873 37.6945 74.3292 37.749C74.2951 37.749 74.261 37.7524 74.2303 37.7524V37.749ZM72.2493 28.9533C71.7685 28.9533 71.3116 28.6602 71.1309 28.1831C70.6194 26.8302 70.0056 25.5011 69.3101 24.2266C68.993 23.6472 69.2044 22.9248 69.784 22.6078C70.3603 22.2909 71.0865 22.5022 71.4036 23.0815C72.1538 24.4515 72.8119 25.8828 73.3642 27.338C73.5961 27.9548 73.2858 28.6432 72.6687 28.8749C72.5289 28.926 72.3857 28.9533 72.2459 28.9533H72.2493ZM67.9155 21.0436C67.5506 21.0436 67.1926 20.8766 66.9573 20.5631C66.0947 19.401 65.1399 18.2901 64.1204 17.2541C63.6567 16.7838 63.6635 16.0306 64.1341 15.5672C64.6046 15.1037 65.3582 15.1105 65.8219 15.5808C66.9164 16.6918 67.9428 17.8879 68.8702 19.1386C69.2623 19.6668 69.1532 20.4132 68.6247 20.8085C68.4099 20.9686 68.161 21.0436 67.9155 21.0436Z" fill="#003D4C"></path><path d="M74.0601 44.8237C74.009 44.8237 73.9544 44.8203 73.8998 44.8135C73.2452 44.7249 72.7883 44.1251 72.8735 43.4742C72.9826 42.6665 73.0576 41.8418 73.102 41.0239C73.1361 40.3662 73.6987 39.855 74.3567 39.8993C75.0148 39.9334 75.5195 40.4957 75.4854 41.1534C75.4376 42.0361 75.3558 42.9221 75.2399 43.7911C75.158 44.3909 74.6466 44.8271 74.0601 44.8271V44.8237Z" fill="#003D4C"></path><path d="M9.38346 44.8237C8.79357 44.8237 8.28211 44.3875 8.20369 43.7877C8.08775 42.9187 8.00592 42.0293 7.95818 41.15C7.92409 40.4923 8.42532 39.93 9.0834 39.8959C9.74489 39.8585 10.3041 40.3628 10.3382 41.0205C10.3825 41.8384 10.4609 42.6631 10.5666 43.4742C10.6519 44.1285 10.195 44.7283 9.54031 44.8135C9.48575 44.8203 9.4346 44.8237 9.38005 44.8237H9.38346Z" fill="#003D4C"></path><path d="M9.20296 37.8342C9.17227 37.8342 9.13817 37.8342 9.10749 37.8308C8.44941 37.7797 7.96181 37.2037 8.01296 36.546C8.13571 35.0159 8.36416 33.4857 8.69491 31.9931C8.83812 31.349 9.47233 30.9435 10.1168 31.0832C10.7612 31.2263 11.167 31.8602 11.0272 32.5043C10.7203 33.8913 10.5089 35.3158 10.3964 36.7369C10.3452 37.3605 9.82353 37.8342 9.20978 37.8342H9.20296ZM11.109 29.1782C10.9726 29.1782 10.8328 29.1543 10.6964 29.1032C10.0793 28.8749 9.76216 28.1899 9.99061 27.5697C10.5225 26.135 11.1567 24.7207 11.8796 23.3712C12.1899 22.7918 12.9128 22.5703 13.4958 22.8804C14.0755 23.1906 14.2971 23.913 13.9868 24.4958C13.3151 25.7533 12.7252 27.0653 12.2308 28.3978C12.0535 28.8783 11.5966 29.1782 11.1124 29.1782H11.109ZM15.2894 21.3639C15.0473 21.3639 14.8018 21.289 14.5904 21.1356C14.0584 20.7505 13.9391 20.0042 14.3244 19.4692C15.2212 18.2321 16.2134 17.0428 17.2738 15.9352C17.7307 15.4581 18.4843 15.4411 18.9616 15.8977C19.439 16.3544 19.4561 17.1075 18.9992 17.5846C18.0137 18.6138 17.0931 19.7214 16.2577 20.8698C16.0224 21.1901 15.661 21.3639 15.2894 21.3639Z" fill="#003D4C"></path><path d="M21.4201 14.9572C21.0689 14.9572 20.7211 14.8038 20.4858 14.5073C20.0766 13.9927 20.1619 13.243 20.6768 12.8306C21.3655 12.282 22.0816 11.7572 22.8113 11.263C23.3568 10.895 24.1001 11.0381 24.4684 11.5834C24.8366 12.1286 24.6934 12.8715 24.1479 13.2396C23.4693 13.6962 22.801 14.187 22.1634 14.6947C21.9452 14.8685 21.6826 14.9537 21.4201 14.9537V14.9572Z" fill="#003D4C"></path><path d="M53.4407 70.9212C52.96 70.9212 52.5099 70.6315 52.3257 70.1578C52.0905 69.5444 52.3974 68.8526 53.0111 68.6175C53.7749 68.3244 54.5353 67.9972 55.2718 67.6428C55.8685 67.3565 56.5777 67.6087 56.8641 68.2051C57.1471 68.7981 56.8982 69.5103 56.3015 69.7966C55.507 70.1748 54.6887 70.5293 53.8669 70.8462C53.7271 70.9007 53.5805 70.9246 53.4373 70.9246L53.4407 70.9212Z" fill="#003D4C"></path><path d="M39.3316 73C39.3044 73 39.2737 73 39.243 73C37.5927 72.8807 35.939 72.6387 34.333 72.2809C33.6885 72.1378 33.2828 71.5005 33.4294 70.8564C33.5726 70.2123 34.2102 69.8068 34.8547 69.9533C36.3481 70.2873 37.8859 70.5122 39.4203 70.6213C40.0784 70.669 40.5728 71.2415 40.5251 71.8958C40.4807 72.5229 39.9556 73.0034 39.3351 73.0034L39.3316 73ZM44.1189 73C43.4984 73 42.9767 72.5229 42.9289 71.8924C42.8812 71.2347 43.3756 70.6656 44.0337 70.6179C45.5681 70.5054 47.1025 70.2805 48.5993 69.9465C49.2404 69.8034 49.8814 70.2089 50.0246 70.8496C50.1678 71.4937 49.7621 72.131 49.121 72.2741C47.5116 72.6319 45.8613 72.8739 44.211 72.9966C44.1803 72.9966 44.153 72.9966 44.1223 72.9966L44.1189 73Z" fill="#003D4C"></path><path d="M30.0024 70.9212C29.8591 70.9212 29.7159 70.8939 29.5727 70.8428C28.7544 70.5259 27.936 70.1749 27.1382 69.7932C26.5449 69.5103 26.2926 68.7981 26.5756 68.2017C26.8586 67.6087 27.5712 67.3565 28.1679 67.6394C28.9078 67.9938 29.6682 68.321 30.4286 68.6141C31.0423 68.8492 31.3492 69.541 31.1139 70.1544C30.9298 70.6281 30.4797 70.9178 29.9989 70.9178L30.0024 70.9212Z" fill="#003D4C"></path></g><defs><clipPath id="clip0_149_646"><rect width="83" height="73" fill="white"></rect></clipPath></defs></svg>