<svg xmlns="http://www.w3.org/2000/svg" width="82" height="69" viewBox="0 0 82 69" fill="none"><g clip-path="url(#clip0_149_1034)"><path d="M49.9281 30.1475H49.8528C49.8528 30.1475 49.843 30.1475 49.8364 30.1475C48.1005 30.1376 46.4039 29.6471 44.93 28.7282C42.5882 27.2665 41.0194 24.8629 40.6296 22.1323L40.6001 21.9165C38.4352 20.6804 37.4395 18.0512 38.2845 15.6771C38.4974 15.0819 39.1524 14.768 39.7485 14.9805C40.3446 15.1931 40.6558 15.8471 40.4462 16.4423C39.9549 17.819 40.5739 19.3527 41.884 20.0067L42.1657 20.1474C42.5031 20.3141 42.7356 20.6379 42.788 21.0107L42.9026 21.8086C43.1974 23.8688 44.3798 25.6837 46.1484 26.7858C47.2719 27.4856 48.5656 27.8551 49.8888 27.8551H49.9019C51.2251 27.8551 52.5189 27.4856 53.6423 26.7858C55.4109 25.6837 56.5933 23.8688 56.8881 21.8086L57.0027 21.0107C57.0551 20.6379 57.2877 20.3174 57.625 20.1474L57.9067 20.0067C59.2168 19.3527 59.8359 17.819 59.3446 16.4423C59.1317 15.8471 59.4461 15.1931 60.0422 14.9805C60.6383 14.768 61.2934 15.0819 61.5062 15.6771C62.3513 18.0512 61.3556 20.6804 59.1906 21.9165L59.1611 22.1323C58.7714 24.8629 57.2025 27.2665 54.8607 28.7282C53.3868 29.6471 51.6902 30.1376 49.9543 30.1475C49.9478 30.1475 49.9412 30.1475 49.9379 30.1475H49.9281Z" fill="#003D4C"></path><path d="M60.416 17.2075C60.2751 17.2075 60.131 17.1813 59.9935 17.1257L58.6244 16.5829C55.9288 15.5136 53.9276 13.2866 53.1285 10.5724L51.1076 11.7039C49.6534 12.5181 47.9568 12.7863 46.3224 12.456C44.2786 12.0439 42.189 13.0512 41.2425 14.9053L40.3843 16.5829C40.0961 17.1454 39.405 17.3677 38.8417 17.08C38.2783 16.7922 38.0556 16.1022 38.3438 15.5397L39.202 13.8621C40.6169 11.1021 43.7317 9.59788 46.7777 10.2127C47.8716 10.4318 49.0114 10.2519 49.9875 9.7058L53.3807 7.80257C53.718 7.61291 54.1242 7.60637 54.4681 7.78295C54.812 7.95954 55.0412 8.29637 55.0838 8.67897C55.3622 11.2755 57.0424 13.4894 59.476 14.4508L60.845 14.9936C61.4346 15.2258 61.7195 15.8929 61.487 16.4815C61.3068 16.9295 60.8778 17.2042 60.4225 17.2042L60.416 17.2075Z" fill="#003D4C"></path><path d="M60.419 17.2075C60.3895 17.2075 60.3568 17.2075 60.3273 17.2042C59.6952 17.1552 59.2235 16.6025 59.2759 15.9714L59.6854 10.8111C59.8 9.20875 59.2268 7.61946 58.1099 6.45529C56.9931 5.29111 55.4275 4.65344 53.8128 4.69268C53.5704 4.70249 53.3379 4.63055 53.1413 4.49974C48.2808 1.23287 41.7859 1.62201 37.3479 5.44154L37.1055 5.65083L38.884 7.11912C39.7389 7.82547 40.2302 8.86538 40.2302 9.97396V12.1192C40.2302 12.7503 39.7159 13.2637 39.0838 13.2637C38.4517 13.2637 37.9375 12.7503 37.9375 12.1192V9.97396C37.9375 9.55211 37.7508 9.15315 37.4232 8.885L34.5967 6.55339C34.3379 6.33756 34.184 6.02036 34.1807 5.68353C34.1774 5.34671 34.3216 5.02623 34.577 4.80386L35.8511 3.70837C40.9769 -0.706326 48.4413 -1.21974 54.1239 2.40358C56.2529 2.44282 58.2934 3.32903 59.7705 4.87254C61.3361 6.50434 62.1385 8.7313 61.9748 10.9844L61.5654 16.1545C61.5162 16.753 61.0151 17.2075 60.4223 17.2075H60.419Z" fill="#003D4C"></path><path d="M16.3895 27.4104C15.7934 27.4104 15.2923 26.9525 15.2464 26.3508C15.063 23.8819 16.2618 21.547 18.371 20.2618L37.371 8.66917C37.9114 8.33889 38.6156 8.50893 38.9464 9.04851C39.2772 9.58808 39.1069 10.2912 38.5664 10.6214L19.5665 22.2141C18.1909 23.0513 17.4114 24.5719 17.5326 26.1808C17.5784 26.8119 17.1068 27.3613 16.4747 27.4071C16.4452 27.4071 16.4157 27.4071 16.3895 27.4071V27.4104Z" fill="#003D4C"></path><path d="M62.0863 51.9757C61.4542 51.9757 60.9399 51.4622 60.9399 50.8311V44.5099C60.9399 44.1829 61.0808 43.8723 61.3264 43.6532L77.562 29.258C78.5872 28.3489 79.1047 27.0474 78.9802 25.687C78.859 24.3266 78.1188 23.1363 76.9495 22.4234L64.9915 15.1277C64.451 14.7974 64.2807 14.0943 64.6115 13.5548C64.9423 13.0152 65.6465 12.8451 66.1869 13.1754L78.145 20.4711C79.9399 21.5666 81.0764 23.3946 81.2631 25.4842C81.4498 27.5771 80.6539 29.5752 79.0817 30.9683L63.2326 45.0201V50.8246C63.2326 51.4557 62.7184 51.9691 62.0863 51.9691V51.9757Z" fill="#003D4C"></path><path d="M41.1375 34.7714H36.0215C34.8162 34.7714 33.6437 34.2776 32.8019 33.4176L24.9871 25.4319C24.7415 25.1801 24.6235 24.8302 24.6694 24.4803C24.7153 24.1304 24.9216 23.823 25.2229 23.6464L34.7409 18.0381C35.2846 17.7176 35.9888 17.8975 36.3098 18.4436C36.6307 18.9865 36.4506 19.6895 35.9036 20.01L27.6434 24.876L34.4363 31.8152C34.849 32.2371 35.4254 32.4791 36.015 32.4791H41.131C41.9924 32.4791 42.8014 32.1455 43.4106 31.5373C44.0198 30.929 44.3539 30.1213 44.3539 29.2613L44.3801 27.7406C44.3899 27.1095 44.9139 26.6026 45.5461 26.6157C46.1782 26.6255 46.6826 27.1487 46.6728 27.7799L46.6466 29.2809C46.6466 30.7328 46.0734 32.1161 45.0318 33.156C43.9903 34.1959 42.6049 34.7682 41.131 34.7682L41.1375 34.7714Z" fill="#003D4C"></path><path d="M58.5652 34.7714C57.0914 34.7714 55.7059 34.1991 54.6644 33.1592C53.6228 32.1193 53.0464 30.7361 53.0464 29.2645V28.98C53.0464 28.3489 53.5606 27.8354 54.1927 27.8354C54.8249 27.8354 55.3391 28.3489 55.3391 28.98V29.2645C55.3391 30.1245 55.6732 30.9323 56.2824 31.5405C56.8916 32.1488 57.7006 32.4823 58.562 32.4823H60.1439C60.7335 32.4823 61.3099 32.2403 61.7226 31.8185L68.5155 24.8792L60.0588 19.8988C59.5118 19.5783 59.3317 18.8753 59.6526 18.3324C59.9736 17.7863 60.6778 17.6064 61.2215 17.9269L70.936 23.6497C71.2406 23.8295 71.4437 24.1369 71.4895 24.4836C71.5354 24.8335 71.4207 25.1834 71.1718 25.4352L63.357 33.4208C62.5152 34.2809 61.3427 34.7747 60.1374 34.7747H58.5554L58.5652 34.7714Z" fill="#003D4C"></path><path d="M49.8893 37.3418C46.4601 37.3418 43.3158 36.2593 41.2655 34.3725C40.8004 33.9441 40.7709 33.2214 41.2 32.7537C41.629 32.2894 42.3529 32.2599 42.8213 32.6883C44.4294 34.1664 47.0726 35.0527 49.8926 35.0527C52.7126 35.0527 55.3394 34.173 56.9508 32.6981C57.4159 32.2698 58.143 32.3025 58.5688 32.7701C58.9979 33.2345 58.9651 33.9604 58.4968 34.3855C56.4432 36.2626 53.3087 37.3385 49.8893 37.3385V37.3418Z" fill="#003D4C"></path><path d="M30.1097 52.3387C29.5693 52.3387 29.0846 51.9528 28.983 51.4034L25.3049 31.5438C25.2983 31.5013 25.259 31.4686 25.2165 31.4686H4.21535C4.21535 31.4686 4.17277 31.4686 4.14656 31.5013C4.12036 31.534 4.12364 31.5634 4.12691 31.5765L7.22206 48.2935C7.33669 48.9148 6.92728 49.5132 6.3017 49.6277C5.6794 49.7422 5.08002 49.3334 4.96539 48.7088L1.87024 31.9918C1.74251 31.2953 1.92592 30.5824 2.38119 30.0363C2.83645 29.4902 3.50461 29.1795 4.21207 29.1795H25.2132C26.3628 29.1795 27.3487 29.997 27.5583 31.1252L31.2364 50.9848C31.3511 51.6061 30.9417 52.2046 30.3161 52.319C30.2473 52.3321 30.1752 52.3387 30.1065 52.3387H30.1097Z" fill="#003D4C"></path><path d="M40.07 52.3386C39.4378 52.3386 38.9236 51.8252 38.9236 51.1941V48.4177C38.9236 47.2895 38.0033 46.3739 36.8766 46.3739H31.5804C30.9483 46.3739 30.4341 45.8605 30.4341 45.2294C30.4341 44.5982 30.9483 44.0848 31.5804 44.0848H36.8766C39.2708 44.0848 41.2163 46.0305 41.2163 48.4177V51.1941C41.2163 51.8252 40.7021 52.3386 40.07 52.3386Z" fill="#003D4C"></path><path d="M80.8537 62.0935H1.14635C0.51422 62.0935 0 61.5801 0 60.9489V51.1843C0 50.5531 0.51422 50.0397 1.14635 50.0397H80.8537C81.4858 50.0397 82 50.5531 82 51.1843V60.9489C82 61.5801 81.4858 62.0935 80.8537 62.0935ZM2.2927 59.8044H79.7073V52.3288H2.2927V59.8044Z" fill="#003D4C"></path><path d="M74.8006 69C74.1685 69 73.6543 68.4866 73.6543 67.8554V60.9489C73.6543 60.3178 74.1685 59.8044 74.8006 59.8044C75.4328 59.8044 75.947 60.3178 75.947 60.9489V67.8554C75.947 68.4866 75.4328 69 74.8006 69Z" fill="#003D4C"></path><path d="M7.19567 69C6.56354 69 6.04932 68.4866 6.04932 67.8554V60.9489C6.04932 60.3178 6.56354 59.8044 7.19567 59.8044C7.8278 59.8044 8.34201 60.3178 8.34201 60.9489V67.8554C8.34201 68.4866 7.8278 69 7.19567 69Z" fill="#003D4C"></path></g><defs><clipPath id="clip0_149_1034"><rect width="82" height="69" fill="white"></rect></clipPath></defs></svg>