<svg xmlns="http://www.w3.org/2000/svg" width="65" height="72" viewBox="0 0 65 72" fill="none"><g clip-path="url(#clip0_149_1072)"><path d="M62.0561 58.8329H2.94394C1.32171 58.8329 0 57.52 0 55.9085V18.9724C0 17.3609 1.32171 16.048 2.94394 16.048C3.50705 16.048 3.96512 16.503 3.96512 17.0624C3.96512 17.6218 3.50705 18.0768 2.94394 18.0768C2.44793 18.0768 2.04237 18.4797 2.04237 18.9724V55.9085C2.04237 56.4012 2.44793 56.8041 2.94394 56.8041H62.0561C62.5521 56.8041 62.9576 56.4012 62.9576 55.9085V18.9724C62.9576 18.4797 62.5521 18.0768 62.0561 18.0768C61.493 18.0768 61.0349 17.6218 61.0349 17.0624C61.0349 16.503 61.493 16.048 62.0561 16.048C63.6783 16.048 65 17.3609 65 18.9724V55.9085C65 57.52 63.6783 58.8329 62.0561 58.8329Z" fill="#003D4C"></path><path d="M18.8891 71.4667C18.7811 71.4667 18.6732 71.4493 18.5681 71.4145C18.0342 71.2377 17.7424 70.6639 17.9204 70.1335L22.1335 57.491C22.3115 56.9606 22.8892 56.6708 23.4231 56.8476C23.9571 57.0244 24.2488 57.5982 24.0709 58.1286L19.8577 70.7711C19.7148 71.1971 19.318 71.4667 18.8891 71.4667Z" fill="#003D4C"></path><path d="M46.1081 71.4667C45.6792 71.4667 45.2824 71.1972 45.1394 70.7711L40.9263 58.1287C40.7483 57.5954 41.0401 57.0215 41.574 56.8476C42.1079 56.6737 42.6856 56.9606 42.8636 57.491L47.0767 70.1335C47.2547 70.6668 46.9629 71.2406 46.429 71.4145C46.321 71.4493 46.2131 71.4667 46.1081 71.4667Z" fill="#003D4C"></path><path d="M59.8039 72H7.26533C6.70222 72 6.24414 71.5449 6.24414 70.9856C6.24414 70.4262 6.70222 69.9712 7.26533 69.9712H59.8039C60.367 69.9712 60.8251 70.4262 60.8251 70.9856C60.8251 71.5449 60.367 72 59.8039 72Z" fill="#003D4C"></path><path d="M32.4363 7.7849H15.1345C14.5714 7.7849 14.1133 7.32986 14.1133 6.77048C14.1133 6.21111 14.5714 5.75607 15.1345 5.75607H32.4363C32.9994 5.75607 33.4575 6.21111 33.4575 6.77048C33.4575 7.32986 32.9994 7.7849 32.4363 7.7849Z" fill="#003D4C"></path><path d="M49.8632 7.7849H39.7097C39.1466 7.7849 38.6885 7.32986 38.6885 6.77048C38.6885 6.21111 39.1466 5.75607 39.7097 5.75607H49.8632C50.4263 5.75607 50.8844 6.21111 50.8844 6.77048C50.8844 7.32986 50.4263 7.7849 49.8632 7.7849Z" fill="#003D4C"></path><path d="M30.0292 16.5436H15.1345C14.5714 16.5436 14.1133 16.0886 14.1133 15.5292C14.1133 14.9698 14.5714 14.5148 15.1345 14.5148H30.0292C30.5923 14.5148 31.0504 14.9698 31.0504 15.5292C31.0504 16.0886 30.5923 16.5436 30.0292 16.5436Z" fill="#003D4C"></path><path d="M49.8638 16.5436H40.3405C39.7774 16.5436 39.3193 16.0886 39.3193 15.5292C39.3193 14.9698 39.7774 14.5148 40.3405 14.5148H49.8638C50.4269 14.5148 50.885 14.9698 50.885 15.5292C50.885 16.0886 50.4269 16.5436 49.8638 16.5436Z" fill="#003D4C"></path><path d="M49.8636 25.2994H15.1374C14.5743 25.2994 14.1162 24.8444 14.1162 24.285C14.1162 23.7256 14.5743 23.2706 15.1374 23.2706H49.8665C50.4296 23.2706 50.8877 23.7256 50.8877 24.285C50.8877 24.8444 50.4296 25.2994 49.8665 25.2994H49.8636Z" fill="#003D4C"></path><path d="M40.3662 44.4022C36.7045 44.4022 33.7256 41.4431 33.7256 37.8057C33.7256 34.1683 36.7045 31.2091 40.3662 31.2091C44.0279 31.2091 47.0069 34.1683 47.0069 37.8057C47.0069 41.4431 44.0279 44.4022 40.3662 44.4022ZM40.3662 33.235C37.8308 33.235 35.768 35.2841 35.768 37.8028C35.768 40.3214 37.8308 42.3705 40.3662 42.3705C42.9017 42.3705 44.9645 40.3214 44.9645 37.8028C44.9645 35.2841 42.9017 33.235 40.3662 33.235Z" fill="#003D4C"></path><path d="M36.0427 53.0682C35.888 53.0682 35.7305 53.0334 35.5875 52.961C35.2403 52.79 35.0215 52.4364 35.0215 52.0538V45.3645C35.0215 44.8051 35.4796 44.3501 36.0427 44.3501C36.6058 44.3501 37.0639 44.8051 37.0639 45.3645V50.0163L39.754 47.999C40.1187 47.7266 40.6205 47.7266 40.9852 47.999L43.6695 50.0163V45.3674C43.6695 44.808 44.1276 44.353 44.6907 44.353C45.2538 44.353 45.7119 44.808 45.7119 45.3674V52.0567C45.7119 52.4422 45.493 52.7929 45.1458 52.9639C44.7986 53.1349 44.3843 53.0972 44.075 52.8653L40.3696 50.0829L36.6583 52.8682C36.4774 53.0044 36.2615 53.074 36.0427 53.074V53.0682Z" fill="#003D4C"></path><path d="M27.4818 38.5245H17.1999C16.6368 38.5245 16.1787 38.0694 16.1787 37.51C16.1787 36.9507 16.6368 36.4956 17.1999 36.4956H27.4818C28.0449 36.4956 28.503 36.9507 28.503 37.51C28.503 38.0694 28.0449 38.5245 27.4818 38.5245Z" fill="#003D4C"></path><path d="M27.4818 47.7788H17.1999C16.6368 47.7788 16.1787 47.3238 16.1787 46.7644C16.1787 46.205 16.6368 45.75 17.1999 45.75H27.4818C28.0449 45.75 28.503 46.205 28.503 46.7644C28.503 47.3238 28.0449 47.7788 27.4818 47.7788Z" fill="#003D4C"></path><path d="M55.5521 58.8242C54.989 58.8242 54.5309 58.3692 54.5309 57.8098V2.02882H10.4682V56.7317C10.4682 57.291 10.0101 57.7461 9.44697 57.7461C8.88386 57.7461 8.42578 57.291 8.42578 56.7317V1.01441C8.42578 0.455036 8.88386 0 9.44697 0H55.5521C56.1152 0 56.5733 0.455036 56.5733 1.01441V57.8098C56.5733 58.3692 56.1152 58.8242 55.5521 58.8242Z" fill="#003D4C"></path></g><defs><clipPath id="clip0_149_1072"><rect width="65" height="72" fill="white"></rect></clipPath></defs></svg>