<svg xmlns="http://www.w3.org/2000/svg" width="65" height="70" viewBox="0 0 65 70" fill="none"><g clip-path="url(#clip0_149_1018)"><path d="M52.9736 70H1.01418C0.683816 70 0.373741 69.8406 0.185377 69.5683C-0.00588474 69.2989 -0.0522512 68.9541 0.0607671 68.6412L10.954 38.2753C11.0989 37.8726 11.4814 37.6031 11.9074 37.6031H63.9856C64.316 37.6031 64.6261 37.7654 64.8173 38.0348C65.0086 38.3043 65.0521 38.6519 64.939 38.962L53.9241 69.3278C53.7792 69.7276 53.3967 69.9971 52.9707 69.9971L52.9736 70ZM2.45444 67.9719H52.2607L62.5396 39.6341H12.6232L2.45444 67.9719Z" fill="#003D4C"></path><path d="M1.01427 59.0919C0.454971 59.0919 0 58.6371 0 58.0779V27.5411C0 27.0341 0.37383 26.6082 0.872269 26.5357C1.37361 26.4633 1.84886 26.7762 1.98796 27.26L5.52341 39.6167L11.5945 37.6524C12.1277 37.4815 12.6986 37.7712 12.8725 38.3043C13.0435 38.8374 12.7537 39.4081 12.2205 39.582L5.14958 41.8679C4.88876 41.9519 4.60187 41.9287 4.36135 41.7983C4.11792 41.668 3.93825 41.4478 3.86291 41.1812L2.02853 34.7697V58.0721C2.02853 58.6313 1.57356 59.0861 1.01427 59.0861V59.0919Z" fill="#003D4C"></path><path d="M6.46233 28.5551H1.01427C0.454971 28.5551 0 28.1002 0 27.5411C0 26.9819 0.454971 26.527 1.01427 26.527H6.46233C7.02162 26.527 7.47659 26.9819 7.47659 27.5411C7.47659 28.1002 7.02162 28.5551 6.46233 28.5551Z" fill="#003D4C"></path><path d="M56.086 35.52C55.5267 35.52 55.0717 35.0652 55.0717 34.506V28.5551H53.8111C53.2518 28.5551 52.7969 28.1002 52.7969 27.5411C52.7969 26.9819 53.2518 26.527 53.8111 26.527H56.086C56.6453 26.527 57.1003 26.9819 57.1003 27.5411V34.506C57.1003 35.0652 56.6453 35.52 56.086 35.52Z" fill="#003D4C"></path><path d="M50.3129 35.5664C49.7536 35.5664 49.2987 35.1115 49.2987 34.5524V2.02806H10.8V34.5524C10.8 35.1115 10.345 35.5664 9.78575 35.5664C9.22646 35.5664 8.77148 35.1115 8.77148 34.5524V1.01403C8.77148 0.454865 9.22646 0 9.78575 0H50.3158C50.8751 0 51.3301 0.454865 51.3301 1.01403V34.5524C51.3301 35.1115 50.8751 35.5664 50.3158 35.5664H50.3129Z" fill="#003D4C"></path><path d="M30.048 23.4618C24.6028 23.4618 20.1748 19.0319 20.1748 13.5909C20.1748 8.1499 24.6057 3.72003 30.048 3.72003C35.4902 3.72003 39.9211 8.1499 39.9211 13.5909C39.9211 19.0319 35.4902 23.4618 30.048 23.4618ZM30.048 5.7452C25.7214 5.7452 22.2033 9.26533 22.2033 13.588C22.2033 17.9107 25.7243 21.4308 30.048 21.4308C34.3716 21.4308 37.8926 17.9107 37.8926 13.588C37.8926 9.26533 34.3716 5.7452 30.048 5.7452Z" fill="#003D4C"></path><path d="M30.0537 15.4364C27.7962 15.4364 25.9561 13.5996 25.9561 11.3398C25.9561 9.07992 27.7933 7.24307 30.0537 7.24307C32.3141 7.24307 34.1513 9.07992 34.1513 11.3398C34.1513 13.5996 32.3141 15.4364 30.0537 15.4364ZM30.0537 9.27403C28.9119 9.27403 27.9846 10.2011 27.9846 11.3427C27.9846 12.4842 28.9119 13.4113 30.0537 13.4113C31.1955 13.4113 32.1228 12.4842 32.1228 11.3427C32.1228 10.2011 31.1955 9.27403 30.0537 9.27403Z" fill="#003D4C"></path><path d="M35.4174 21.6945C35.3131 21.6945 35.2059 21.6771 35.1015 21.6452C34.5683 21.4714 34.2785 20.8977 34.4524 20.3675C34.5191 20.1618 34.5538 19.9127 34.5538 19.6229C34.5538 17.3776 32.534 15.5523 30.0534 15.5523C27.5728 15.5523 25.5529 17.3776 25.5529 19.6229C25.5529 19.8055 25.5674 19.9735 25.5935 20.1213C25.692 20.6717 25.324 21.199 24.7734 21.2975C24.2199 21.396 23.6954 21.0281 23.5969 20.4776C23.5505 20.2111 23.5244 19.9242 23.5244 19.6229C23.5244 16.2592 26.4542 13.5243 30.0534 13.5243C33.6526 13.5243 36.5824 16.2592 36.5824 19.6229C36.5824 20.1271 36.5157 20.5906 36.3824 20.9962C36.2433 21.425 35.8463 21.6974 35.4174 21.6974V21.6945Z" fill="#003D4C"></path><path d="M43.274 27.3846H16.8248C16.2655 27.3846 15.8105 26.9298 15.8105 26.3706C15.8105 25.8114 16.2655 25.3566 16.8248 25.3566H43.274C43.8333 25.3566 44.2883 25.8114 44.2883 26.3706C44.2883 26.9298 43.8333 27.3846 43.274 27.3846Z" fill="#003D4C"></path><path d="M43.274 33.6021H16.8248C16.2655 33.6021 15.8105 33.1472 15.8105 32.5881C15.8105 32.0289 16.2655 31.574 16.8248 31.574H43.274C43.8333 31.574 44.2883 32.0289 44.2883 32.5881C44.2883 33.1472 43.8333 33.6021 43.274 33.6021Z" fill="#003D4C"></path><path d="M30.4103 64.9878H9.78587C9.44392 64.9878 9.12805 64.8169 8.93969 64.5329C8.75132 64.249 8.71944 63.8897 8.85275 63.5768L11.7507 56.8002C11.91 56.4265 12.2781 56.186 12.6838 56.186H33.3111C33.653 56.186 33.9689 56.3569 34.1573 56.6409C34.3456 56.9248 34.3775 57.2841 34.2442 57.597L31.3463 64.3736C31.1869 64.7473 30.8189 64.9878 30.4132 64.9878H30.4103ZM11.3218 62.9597H29.7408L31.7723 58.2112H13.3532L11.3218 62.9597Z" fill="#003D4C"></path></g><defs><clipPath id="clip0_149_1018"><rect width="65" height="70" fill="white"></rect></clipPath></defs></svg>