<svg xmlns="http://www.w3.org/2000/svg" width="91" height="92" viewBox="0 0 91 92" fill="none"><g clip-path="url(#clip0_65_973)"><path d="M70.5125 31.0801C67.7226 31.0801 65.4534 28.8015 65.4534 26C65.4534 23.1984 67.7226 20.9198 70.5125 20.9198C73.3025 20.9198 75.5717 23.1984 75.5717 26C75.5717 28.8015 73.3025 31.0801 70.5125 31.0801ZM70.5125 23.5916C69.1898 23.5916 68.1141 24.6717 68.1141 26C68.1141 27.3282 69.1898 28.4083 70.5125 28.4083C71.8353 28.4083 72.911 27.3282 72.911 26C72.911 24.6717 71.8353 23.5916 70.5125 23.5916Z" fill="#003D4C"></path><path d="M54.0923 44.7633C51.3024 44.7633 49.0332 42.4847 49.0332 39.6832C49.0332 36.8817 51.3024 34.603 54.0923 34.603C56.8823 34.603 59.1515 36.8817 59.1515 39.6832C59.1515 42.4847 56.8823 44.7633 54.0923 44.7633ZM54.0923 37.2748C52.7696 37.2748 51.6939 38.3549 51.6939 39.6832C51.6939 41.0114 52.7696 42.0916 54.0923 42.0916C55.4151 42.0916 56.4908 41.0114 56.4908 39.6832C56.4908 38.3549 55.4151 37.2748 54.0923 37.2748Z" fill="#003D4C"></path><path d="M37.668 33.6449C34.8781 33.6449 32.6089 31.3663 32.6089 28.5648C32.6089 25.7632 34.8781 23.4846 37.668 23.4846C40.458 23.4846 42.7272 25.7632 42.7272 28.5648C42.7272 31.3663 40.458 33.6449 37.668 33.6449ZM37.668 26.1564C36.3453 26.1564 35.2696 27.2365 35.2696 28.5648C35.2696 29.893 36.3453 30.9732 37.668 30.9732C38.9908 30.9732 40.0665 29.893 40.0665 28.5648C40.0665 27.2365 38.9908 26.1564 37.668 26.1564Z" fill="#003D4C"></path><path d="M22.046 43.9884C19.256 43.9884 16.9868 41.7098 16.9868 38.9083C16.9868 36.1068 19.256 33.8281 22.046 33.8281C24.8359 33.8281 27.1051 36.1068 27.1051 38.9083C27.1051 41.7098 24.8359 43.9884 22.046 43.9884ZM22.046 36.5037C20.7232 36.5037 19.6475 37.5839 19.6475 38.9121C19.6475 40.2403 20.7232 41.3205 22.046 41.3205C23.3687 41.3205 24.4444 40.2403 24.4444 38.9121C24.4444 37.5839 23.3687 36.5037 22.046 36.5037Z" fill="#003D4C"></path><path d="M59.8811 36.1946C59.4972 36.1946 59.1209 36.0305 58.8548 35.7099C58.3873 35.1412 58.4633 34.3015 59.0297 33.8282L64.199 29.519C64.7654 29.0457 65.6016 29.1259 66.0729 29.6946C66.5404 30.2633 66.4644 31.103 65.8981 31.5763L60.7287 35.8854C60.4816 36.0916 60.1776 36.1946 59.8811 36.1946Z" fill="#003D4C"></path><path d="M47.6762 36.6335C47.4177 36.6335 47.1592 36.5572 46.9274 36.4007L43.134 33.8091C42.5258 33.3931 42.37 32.561 42.7843 31.9541C43.1986 31.3435 44.0272 31.187 44.6316 31.603L48.425 34.1946C49.0331 34.6106 49.189 35.4427 48.7747 36.0496C48.5162 36.4274 48.0981 36.6335 47.6724 36.6335H47.6762Z" fill="#003D4C"></path><path d="M2.14383 36.0381C1.72192 36.0381 1.30761 35.8358 1.04914 35.4618C0.631027 34.8549 0.779267 34.0228 1.38363 33.603L32.989 11.5992C33.468 11.2671 34.1065 11.2824 34.5665 11.645L50.143 23.8434L73.1277 4.56481C73.542 4.21748 74.1274 4.15641 74.6063 4.41214C75.0852 4.66786 75.3589 5.18695 75.3057 5.72893L74.5569 12.9847C74.4809 13.7175 73.8271 14.2518 73.0973 14.1755C72.3675 14.0992 71.8354 13.4427 71.9114 12.7098L72.3219 8.72512L51.0286 26.5877C50.5459 26.9923 49.8503 27.0037 49.3562 26.6144L33.7036 14.3549L2.90023 35.8015C2.66837 35.9618 2.4061 36.0381 2.14383 36.0381Z" fill="#003D4C"></path><path d="M12.4941 46.5725C12.0607 46.5725 11.6388 46.3626 11.3804 45.9733C10.9775 45.3588 11.1447 44.5305 11.7605 44.1221L14.9267 42.0229C15.5387 41.6183 16.3635 41.7862 16.7702 42.4046C17.1731 43.0191 17.0059 43.8473 16.3901 44.2557L13.2239 46.3549C12.9996 46.5038 12.7449 46.5763 12.4941 46.5763V46.5725Z" fill="#003D4C"></path><path d="M28.4315 36.019C27.9982 36.019 27.5763 35.8091 27.3178 35.4198C26.9149 34.8053 27.0821 33.977 27.6941 33.5686L30.6779 31.5916C31.2899 31.187 32.1147 31.3549 32.5214 31.9694C32.9243 32.5839 32.7571 33.4122 32.1451 33.8206L29.1613 35.7977C28.937 35.9465 28.6824 36.019 28.4315 36.019Z" fill="#003D4C"></path><path d="M73.9791 6.92362C73.9791 6.92362 73.9411 6.92362 73.9221 6.92362L66.7306 6.62973C65.997 6.59919 65.4268 5.97705 65.4572 5.24041C65.4876 4.50377 66.1034 3.92744 66.8408 3.96179L74.0323 4.25568C74.7659 4.28621 75.336 4.90835 75.3056 5.64499C75.2752 6.36255 74.6861 6.92744 73.9791 6.92744V6.92362Z" fill="#003D4C"></path><path d="M79.4981 92C79.2663 92 79.0344 91.9924 78.7987 91.9771C75.5147 91.7748 72.4662 90.168 70.4365 87.5649L49.8312 61.1107C49.3789 60.5306 49.4815 59.6909 50.0593 59.2367C50.637 58.7825 51.4733 58.8855 51.9256 59.4657L72.5309 85.9199C74.0893 87.9199 76.4307 89.1565 78.9584 89.313C81.486 89.4695 83.9567 88.5268 85.747 86.729C87.5373 84.9313 88.4723 82.4466 88.3203 79.9123C88.1682 77.3779 86.9367 75.0229 84.9412 73.4581L61.641 55.1565C61.0632 54.7023 60.9606 53.8626 61.4129 53.2825C61.8652 52.7023 62.7015 52.5993 63.2792 53.0535L86.5794 71.355C89.1717 73.3893 90.7719 76.4504 90.9734 79.7519C91.1748 83.0497 89.9547 86.2825 87.6247 88.6222C85.4619 90.7939 82.5313 92.0039 79.4905 92.0039L79.4981 92Z" fill="#003D4C"></path><path d="M32.0653 64.4008C14.3868 64.4008 0 49.9542 0 32.1985C0 14.4427 14.3868 0 32.0653 0C40.9103 0 49.1509 3.53817 55.2591 9.96565C55.7646 10.5 55.7456 11.3435 55.2173 11.855C54.6851 12.3664 53.8451 12.3435 53.3358 11.813C47.7331 5.91985 40.1767 2.67176 32.0653 2.67176C15.854 2.67176 2.66071 15.9198 2.66071 32.1985C2.66071 48.4771 15.854 61.7252 32.0653 61.7252C42.7956 61.7252 52.6744 55.855 57.8514 46.4046C58.2049 45.7595 59.0145 45.5229 59.6569 45.8779C60.2992 46.2328 60.5349 47.0458 60.1814 47.6908C54.5369 57.9962 43.7648 64.3969 32.0653 64.3969V64.4008Z" fill="#003D4C"></path></g><defs><clipPath id="clip0_65_973"><rect width="91" height="92" fill="white"></rect></clipPath></defs></svg>