<svg xmlns="http://www.w3.org/2000/svg" width="79" height="79" viewBox="0 0 79 79" fill="none"><g clip-path="url(#clip0_148_353)"><path d="M62.8045 47.6426C62.1852 47.6426 61.6814 47.1388 61.6814 46.5195C61.6814 34.2871 51.7306 24.3363 39.4982 24.3363C27.2659 24.3363 17.3151 34.2871 17.3151 46.5195C17.3151 47.1388 16.8113 47.6426 16.192 47.6426C15.5726 47.6426 15.0688 47.1388 15.0688 46.5195C15.0688 33.0485 26.0273 22.0901 39.4982 22.0901C52.9692 22.0901 63.9276 33.0485 63.9276 46.5195C63.9276 47.1388 63.4238 47.6426 62.8045 47.6426Z" fill="#003D4C"></path><path d="M26.1426 47.6394C25.5233 47.6394 25.0195 47.1356 25.0195 46.5163C25.0195 38.5325 31.5144 32.0377 39.4981 32.0377C43.3616 32.0377 46.9973 33.5459 49.7345 36.2831C50.1741 36.7227 50.1741 37.4319 49.7345 37.8715C49.2949 38.3111 48.5857 38.3111 48.1461 37.8715C45.8325 35.5579 42.7616 34.2839 39.4981 34.2839C32.753 34.2839 27.2658 39.7712 27.2658 46.5163C27.2658 47.1356 26.762 47.6394 26.1426 47.6394Z" fill="#003D4C"></path><path d="M39.5015 34.2871C38.8822 34.2871 38.3784 33.7833 38.3784 33.164V23.2132C38.3784 22.5939 38.8822 22.0901 39.5015 22.0901C40.1209 22.0901 40.6247 22.5939 40.6247 23.2132V33.164C40.6247 33.7833 40.1209 34.2871 39.5015 34.2871Z" fill="#003D4C"></path><path d="M30.0579 38.1988C29.7691 38.1988 29.4835 38.0897 29.2653 37.8715L22.2282 30.8344C21.7885 30.3947 21.7885 29.6856 22.2282 29.2459C22.6678 28.8063 23.3769 28.8063 23.8166 29.2459L30.8537 36.2831C31.2933 36.7227 31.2933 37.4319 30.8537 37.8715C30.6355 38.0897 30.3467 38.1988 30.0611 38.1988H30.0579Z" fill="#003D4C"></path><path d="M26.1462 47.6426H16.1954C15.5761 47.6426 15.0723 47.1388 15.0723 46.5195C15.0723 45.9002 15.5761 45.3964 16.1954 45.3964H26.1462C26.7655 45.3964 27.2693 45.9002 27.2693 46.5195C27.2693 47.1388 26.7655 47.6426 26.1462 47.6426Z" fill="#003D4C"></path><path d="M62.8043 47.6426H55.5875C54.9682 47.6426 54.4644 47.1388 54.4644 46.5195C54.4644 45.9002 54.9682 45.3964 55.5875 45.3964H62.8043C63.4236 45.3964 63.9274 45.9002 63.9274 46.5195C63.9274 47.1388 63.4236 47.6426 62.8043 47.6426Z" fill="#003D4C"></path><path d="M48.9421 38.202C48.6533 38.202 48.3677 38.0929 48.1495 37.8747C47.7099 37.4351 47.7099 36.7259 48.1495 36.2863L55.1867 29.2491C55.6263 28.8095 56.3354 28.8095 56.7751 29.2491C57.2147 29.6888 57.2147 30.3979 56.7751 30.8376L49.7379 37.8747C49.5197 38.0929 49.2309 38.202 48.9453 38.202H48.9421Z" fill="#003D4C"></path><path d="M40.8522 53.7684C39.1129 53.7684 37.4122 52.8795 36.4592 51.2783C35.0184 48.862 35.811 45.7205 38.2305 44.2797C40.2104 43.0988 52.0833 40.2332 53.4343 39.9091C53.9124 39.7936 54.4098 40.0054 54.6601 40.4258C54.9136 40.8493 54.859 41.3852 54.5317 41.751C53.6075 42.7843 45.4377 51.8655 43.4578 53.0464C42.6395 53.5341 41.741 53.7652 40.8522 53.7652V53.7684ZM50.3858 42.9768C45.7297 44.1545 40.3772 45.6178 39.3793 46.2114C38.0251 47.0169 37.5823 48.7753 38.3877 50.1295C39.1932 51.4836 40.9516 51.9265 42.3058 51.121C43.3005 50.5274 47.1352 46.5131 50.3826 42.9768H50.3858Z" fill="#003D4C"></path><path d="M44.8637 79H34.1363C33.578 79 33.1063 78.5925 33.026 78.0405L31.7938 69.7295C28.8994 68.9946 26.1397 67.8523 23.5726 66.3248L16.8243 71.3339C16.3782 71.6644 15.7557 71.6195 15.361 71.2248L7.77517 63.639C7.38048 63.2443 7.33555 62.6218 7.66607 62.1757L12.6752 55.4274C11.1477 52.8603 10.0054 50.1006 9.27052 47.2062L0.959462 45.974C0.407531 45.8937 0 45.4188 0 44.8637V34.1363C0 33.5812 0.407531 33.1063 0.959462 33.026L9.27052 31.7938C10.0054 28.8994 11.1477 26.1397 12.6752 23.5726L7.66607 16.8243C7.33555 16.3782 7.38048 15.7557 7.77517 15.361L15.361 7.77517C15.7557 7.38048 16.3782 7.33555 16.8243 7.66607L23.5726 12.6752C26.1397 11.1477 28.8994 10.0054 31.7938 9.27052L33.026 0.959462C33.1063 0.407531 33.5812 0 34.1363 0H44.8637C45.422 0 45.8937 0.407531 45.974 0.959462L47.2062 9.27052C50.1006 10.0054 52.8603 11.1477 55.4274 12.6752L62.1757 7.66607C62.6218 7.33555 63.2443 7.38048 63.639 7.77517L71.2248 15.361C71.6195 15.7557 71.6644 16.3782 71.3339 16.8243L66.3248 23.5726C67.8523 26.1397 68.9946 28.8994 69.7295 31.7938L78.0405 33.026C78.5925 33.1063 79 33.5812 79 34.1363V44.8637C79 45.4188 78.5925 45.8937 78.0405 45.974L69.7295 47.2062C68.9946 50.1006 67.8523 52.8603 66.3248 55.4274L71.3339 62.1757C71.6644 62.6218 71.6195 63.2443 71.2248 63.639L63.639 71.2248C63.2443 71.6195 62.6218 71.6644 62.1757 71.3339L55.4274 66.3248C52.8603 67.8523 50.1006 68.9946 47.2062 69.7295L45.974 78.0405C45.8937 78.5925 45.4188 79 44.8637 79ZM35.1054 76.7538H43.8946L45.0947 68.6513C45.1621 68.1924 45.5055 67.8234 45.9547 67.7207C49.1251 66.9987 52.1319 65.7536 54.8883 64.0208C55.2798 63.7738 55.7836 63.793 56.1558 64.069L62.7341 68.9497L68.9497 62.7341L64.069 56.1558C63.793 55.7836 63.7738 55.2798 64.0208 54.8883C65.7536 52.1319 66.9987 49.1283 67.7207 45.9547C67.8234 45.5023 68.1924 45.1621 68.6513 45.0915L76.7538 43.8914V35.1022L68.6513 33.9021C68.1924 33.8347 67.8234 33.4913 67.7207 33.0389C66.9987 29.8685 65.7536 26.8617 64.0208 24.1053C63.7738 23.7138 63.793 23.21 64.069 22.8378L68.9497 16.2595L62.7341 10.0439L56.1558 14.9246C55.7836 15.2006 55.2798 15.2198 54.8883 14.9727C52.1319 13.2399 49.1283 11.9949 45.9547 11.2729C45.5023 11.1702 45.1621 10.8012 45.0947 10.3423L43.8946 2.23981H35.1054L33.9053 10.3423C33.8379 10.8012 33.4945 11.1702 33.0453 11.2729C29.8749 11.9949 26.8682 13.2399 24.1117 14.9727C23.7202 15.2198 23.2164 15.2006 22.8442 14.9246L16.2659 10.0439L10.0503 16.2595L14.931 22.8378C15.207 23.21 15.2262 23.7138 14.9792 24.1053C13.2464 26.8617 12.0013 29.8653 11.2793 33.0389C11.1766 33.4913 10.8076 33.8315 10.3487 33.9021L2.24623 35.1022V43.8914L10.3487 45.0915C10.8076 45.1589 11.1766 45.5023 11.2793 45.9547C12.0013 49.1251 13.2464 52.1319 14.9792 54.8883C15.2262 55.2798 15.207 55.7836 14.931 56.1558L10.0503 62.7341L16.2659 68.9497L22.8442 64.069C23.2164 63.793 23.7202 63.7738 24.1117 64.0208C26.8682 65.7536 29.8717 66.9987 33.0453 67.7207C33.4977 67.8234 33.8379 68.1924 33.9053 68.6513L35.1054 76.7538Z" fill="#003D4C"></path></g><defs><clipPath id="clip0_148_353"><rect width="79" height="79" fill="white"></rect></clipPath></defs></svg>