<svg xmlns="http://www.w3.org/2000/svg" width="74" height="75" viewBox="0 0 74 75" fill="none"><g clip-path="url(#clip0_149_676)"><path d="M26.8883 66.3451C26.2849 66.3451 25.794 65.8559 25.794 65.2546V55.4563C25.794 55.4563 25.7815 55.4314 25.769 55.4314H3.72974C3.72974 55.4314 3.70472 55.4438 3.70472 55.4563V65.2546C3.70472 65.8559 3.21385 66.3451 2.61042 66.3451C2.00699 66.3451 1.51611 65.8559 1.51611 65.2546V55.4563C1.51611 54.2413 2.51037 53.2505 3.72974 53.2505H25.769C26.9884 53.2505 27.9827 54.2413 27.9827 55.4563V65.2546C27.9827 65.8559 27.4918 66.3451 26.8883 66.3451Z" fill="#003D4C"></path><path d="M27.2105 74.3208H2.28849C1.48808 74.3208 0.797108 73.7538 0.640779 72.9718C0.640779 72.9593 0.637653 72.95 0.634526 72.9375L0.0279687 69.255C-0.0627022 68.7689 0.0654877 68.2736 0.381273 67.8904C0.700184 67.5009 1.17543 67.2797 1.67881 67.2797H11.5963C12.3436 67.2797 12.9814 67.7689 13.1971 68.4449H16.2987C16.5144 67.7689 17.1491 67.2797 17.8995 67.2797H27.817C28.3204 67.2797 28.7925 67.5009 29.1146 67.8904C29.4304 68.2736 29.5586 68.7689 29.4679 69.255L28.8613 72.9375C28.8613 72.9375 28.8582 72.9593 28.8551 72.9718C28.6987 73.7538 28.0078 74.3208 27.2074 74.3208H27.2105ZM2.71996 72.1399H26.7759L27.2167 69.4606H18.3279C18.1121 70.1367 17.4774 70.6258 16.7271 70.6258H12.7625C12.0153 70.6258 11.3806 70.1367 11.1617 69.4606H2.27911L2.71996 72.1399Z" fill="#003D4C"></path><path d="M70.9922 19.3443H46.1328C44.4757 19.3443 43.125 17.9984 43.125 16.3472V3.05945C43.125 1.40822 44.4757 0.0623169 46.1328 0.0623169H70.9922C72.6493 0.0623169 74 1.40822 74 3.05945V16.344C74 17.9953 72.6493 19.3412 70.9922 19.3412V19.3443ZM46.1328 2.24318C45.6825 2.24318 45.3136 2.61082 45.3136 3.05945V16.344C45.3136 16.7927 45.6825 17.1603 46.1328 17.1603H70.9922C71.4425 17.1603 71.8114 16.7927 71.8114 16.344V3.05945C71.8114 2.61082 71.4425 2.24318 70.9922 2.24318H46.1328Z" fill="#003D4C"></path><path d="M52.8896 24.1891C52.6863 24.1891 52.48 24.133 52.2955 24.0147C51.789 23.6875 51.6452 23.0115 51.9735 22.5067L55.1282 17.659C55.4565 17.1543 56.135 17.011 56.6415 17.3381C57.148 17.6652 57.2918 18.3413 56.9635 18.846L53.8088 23.6938C53.5993 24.0147 53.2491 24.1922 52.8896 24.1922V24.1891Z" fill="#003D4C"></path><path d="M64.233 24.1889C63.8734 24.1889 63.5232 24.0145 63.3137 23.6905L60.159 18.8427C59.8307 18.338 59.9746 17.6619 60.4811 17.3348C60.9876 17.0077 61.666 17.151 61.9943 17.6557L65.1491 22.5034C65.4773 23.0082 65.3335 23.6842 64.827 24.0114C64.6425 24.1297 64.4362 24.1858 64.233 24.1858V24.1889Z" fill="#003D4C"></path><path d="M67.4748 24.1889H49.647C49.0436 24.1889 48.5527 23.6998 48.5527 23.0985C48.5527 22.4972 49.0436 22.0081 49.647 22.0081H67.4748C68.0783 22.0081 68.5691 22.4972 68.5691 23.0985C68.5691 23.6998 68.0783 24.1889 67.4748 24.1889Z" fill="#003D4C"></path><path d="M67.3155 75H52.9051C51.9296 75 51.1323 74.2087 51.1323 73.2335V53.7116C51.1323 52.7396 51.9265 51.9451 52.9051 51.9451H67.3155C68.291 51.9451 69.0883 52.7365 69.0883 53.7116V73.2335C69.0883 74.2055 68.2941 75 67.3155 75ZM53.3209 72.8191H66.8966V54.1291H53.3209V72.8191Z" fill="#003D4C"></path><path d="M13.2628 23.6312H4.35512C2.71054 23.6312 1.37549 22.2978 1.37549 20.6622V2.96909C1.37549 1.33344 2.71054 0 4.35512 0H13.2628C14.9073 0 16.2424 1.33344 16.2424 2.96909V20.659C16.2424 22.2978 14.9042 23.6281 13.2628 23.6281V23.6312ZM4.35512 2.18087C3.9174 2.18087 3.5641 2.53604 3.5641 2.96909V20.659C3.5641 21.0952 3.92053 21.4473 4.35512 21.4473H13.2628C13.7005 21.4473 14.0538 21.0921 14.0538 20.659V2.96909C14.0538 2.53292 13.6974 2.18087 13.2628 2.18087H4.35512Z" fill="#003D4C"></path><path d="M58.8611 38.5235H56.5943C55.9909 38.5235 55.5 38.0343 55.5 37.433C55.5 36.8317 55.9909 36.3426 56.5943 36.3426H57.7668V26.214C57.7668 25.6127 58.2576 25.1236 58.8611 25.1236C59.4645 25.1236 59.9554 25.6127 59.9554 26.214V37.433C59.9554 38.0343 59.4645 38.5235 58.8611 38.5235Z" fill="#003D4C"></path><path d="M35.8995 20.5157C35.2961 20.5157 34.8052 20.0266 34.8052 19.4253V12.9076H18.275C17.6715 12.9076 17.1807 12.4185 17.1807 11.8172C17.1807 11.2159 17.6715 10.7267 18.275 10.7267H35.8995C36.503 10.7267 36.9938 11.2159 36.9938 11.8172V19.4253C36.9938 20.0266 36.503 20.5157 35.8995 20.5157Z" fill="#003D4C"></path><path d="M14.7481 52.3159C14.1447 52.3159 13.6538 51.8267 13.6538 51.2254V37.433C13.6538 36.8317 14.1447 36.3426 14.7481 36.3426H16.4521C17.0555 36.3426 17.5464 36.8317 17.5464 37.433C17.5464 38.0343 17.0555 38.5235 16.4521 38.5235H15.8424V51.2254C15.8424 51.8267 15.3515 52.3159 14.7481 52.3159Z" fill="#003D4C"></path><path d="M49.0996 64.5661H35.8961C35.2926 64.5661 34.8018 64.077 34.8018 63.4757V55.5654C34.8018 54.9641 35.2926 54.4749 35.8961 54.4749C36.4995 54.4749 36.9904 54.9641 36.9904 55.5654V62.3853H49.0996C49.7031 62.3853 50.1939 62.8744 50.1939 63.4757C50.1939 64.077 49.7031 64.5661 49.0996 64.5661Z" fill="#003D4C"></path><path d="M49.2282 48.9542H26.3948C21.6892 48.9542 17.8623 45.1408 17.8623 40.452C17.8623 35.7631 21.6892 31.9497 26.3948 31.9497C26.5636 31.9497 26.7356 31.9559 26.9044 31.9653C28.2332 27.0054 32.7355 23.5035 37.985 23.5035C44.3101 23.5035 49.4564 28.6317 49.4564 34.9344C49.4564 34.9749 49.4564 35.0154 49.4564 35.0528C53.1958 35.1743 56.2036 38.2431 56.2036 42.0004C56.2036 45.7577 53.0739 48.9511 49.2282 48.9511V48.9542ZM26.3948 34.1337C22.8961 34.1337 20.0509 36.9688 20.0509 40.4551C20.0509 43.9413 22.8961 46.7765 26.3948 46.7765H49.2282C51.867 46.7765 54.015 44.6361 54.015 42.0066C54.015 39.1247 51.4449 36.8161 48.4559 37.299C48.1151 37.3551 47.7681 37.2461 47.5211 37.0062C47.2741 36.7663 47.1521 36.4267 47.1959 36.084C47.2459 35.6946 47.271 35.3082 47.271 34.9375C47.271 29.8374 43.1063 25.6875 37.9881 25.6875C33.4577 25.6875 29.612 28.9121 28.8429 33.3548C28.7928 33.6414 28.6303 33.8969 28.3895 34.0651C28.1488 34.2334 27.8517 34.2957 27.5641 34.2427C27.1764 34.1711 26.7856 34.1337 26.401 34.1337H26.3948Z" fill="#003D4C"></path></g><defs><clipPath id="clip0_149_676"><rect width="74" height="75" fill="white"></rect></clipPath></defs></svg>