<svg xmlns="http://www.w3.org/2000/svg" width="72" height="72" viewBox="0 0 72 72" fill="none"><g clip-path="url(#clip0_149_1053)"><path d="M5.4109 60.1177C4.85152 60.1177 4.39648 59.6633 4.39648 59.1046V20.4705C4.39648 18.7714 5.77898 17.3907 7.48029 17.3907H10.1004C10.6597 17.3907 11.1148 17.8451 11.1148 18.4038C11.1148 18.9624 10.6597 19.4169 10.1004 19.4169H7.48029C6.89773 19.4169 6.42531 19.8887 6.42531 20.4705V59.1046C6.42531 59.6633 5.97027 60.1177 5.4109 60.1177Z" fill="#003D4C"></path><path d="M66.5884 60.1177C66.029 60.1177 65.574 59.6633 65.574 59.1046V20.4705C65.574 19.8887 65.1015 19.4169 64.519 19.4169H61.783C61.2236 19.4169 60.7686 18.9624 60.7686 18.4038C60.7686 17.8451 61.2236 17.3907 61.783 17.3907H64.519C66.2203 17.3907 67.6028 18.7714 67.6028 20.4705V59.1046C67.6028 59.6633 67.1478 60.1177 66.5884 60.1177Z" fill="#003D4C"></path><path d="M66.7193 72H5.28363C2.37082 72 0 69.6322 0 66.7232V62.9052C0 62.3465 0.455036 61.8921 1.01441 61.8921H27.0848C27.3514 61.8921 27.6036 61.9963 27.7949 62.1815L30.5772 64.8996H41.4314L44.208 62.1844C44.3964 61.9992 44.6515 61.895 44.9181 61.895H70.9914C71.5508 61.895 72.0058 62.3494 72.0058 62.9081V66.7261C72.0058 69.6351 69.635 72.0029 66.7222 72.0029L66.7193 72ZM2.02882 63.9212V66.7261C2.02882 68.5178 3.48957 69.9767 5.28363 69.9767H66.7193C68.5133 69.9767 69.9741 68.5178 69.9741 66.7261V63.9212H45.3297L42.5531 66.6363C42.3647 66.8216 42.1096 66.9258 41.843 66.9258H30.1628C29.8961 66.9258 29.644 66.8216 29.4527 66.6363L26.6703 63.9183H2.02882V63.9212Z" fill="#003D4C"></path><path d="M57.0828 55.5877C56.5234 55.5877 56.0684 55.1332 56.0684 54.5746V2.02621H16.686V54.5746C16.686 55.1332 16.231 55.5877 15.6716 55.5877C15.1123 55.5877 14.6572 55.1332 14.6572 54.5746V1.01311C14.6572 0.45445 15.1123 0 15.6716 0H57.0828C57.6422 0 58.0972 0.45445 58.0972 1.01311V54.5746C58.0972 55.1332 57.6422 55.5877 57.0828 55.5877Z" fill="#003D4C"></path><path d="M32.4499 21.8136H20.8015C20.2421 21.8136 19.7871 21.3592 19.7871 20.8005V9.16716C19.7871 8.6085 20.2421 8.15405 20.8015 8.15405H32.4499C33.0092 8.15405 33.4643 8.6085 33.4643 9.16716V20.8005C33.4643 21.3592 33.0092 21.8136 32.4499 21.8136ZM21.8159 19.7874H31.4354V10.1803H21.8159V19.7874Z" fill="#003D4C"></path><path d="M51.8108 12.2036H38.867C38.3076 12.2036 37.8525 11.7491 37.8525 11.1905C37.8525 10.6318 38.3076 10.1774 38.867 10.1774H51.8108C52.3702 10.1774 52.8252 10.6318 52.8252 11.1905C52.8252 11.7491 52.3702 12.2036 51.8108 12.2036Z" fill="#003D4C"></path><path d="M51.8108 19.7903H38.867C38.3076 19.7903 37.8525 19.3359 37.8525 18.7772C37.8525 18.2186 38.3076 17.7641 38.867 17.7641H51.8108C52.3702 17.7641 52.8252 18.2186 52.8252 18.7772C52.8252 19.3359 52.3702 19.7903 51.8108 19.7903Z" fill="#003D4C"></path><path d="M51.7548 50.1661H30.8347C30.2753 50.1661 29.8203 49.7117 29.8203 49.153V34.4109C29.8203 33.8522 30.2753 33.3978 30.8347 33.3978H51.7548C52.3142 33.3978 52.7692 33.8522 52.7692 34.4109V49.153C52.7692 49.7117 52.3142 50.1661 51.7548 50.1661ZM31.8491 48.1399H50.7404V35.424H31.8491V48.1399Z" fill="#003D4C"></path><path d="M38.6901 47.7434C38.3452 47.7434 37.9945 47.6652 37.6699 47.5031C36.8873 47.1152 36.4033 46.3308 36.4033 45.4595V38.5762C36.4033 37.757 36.8265 37.0189 37.5366 36.605C38.2466 36.1911 39.0959 36.1853 39.8117 36.5876L45.0287 39.5285C45.7011 39.9077 46.133 40.5937 46.1851 41.3637C46.2373 42.1336 45.9011 42.8718 45.2838 43.3378L40.0668 47.2802C39.661 47.587 39.177 47.7462 38.6901 47.7462V47.7434ZM38.6872 38.3186C38.635 38.3186 38.5915 38.3359 38.5568 38.3562C38.4988 38.3909 38.4292 38.4546 38.4292 38.5762V45.4595C38.4292 45.5898 38.5075 45.6564 38.5713 45.6882C38.635 45.72 38.7365 45.7432 38.8408 45.6621L44.0578 41.7197C44.1476 41.6502 44.1621 41.5605 44.1592 41.4997C44.1563 41.4389 44.1302 41.3492 44.0288 41.2942L38.8118 38.3533C38.7655 38.3273 38.7249 38.3186 38.6872 38.3186Z" fill="#003D4C"></path><path d="M26.0708 39.323H20.2742C19.7148 39.323 19.2598 38.8685 19.2598 38.3099C19.2598 37.7512 19.7148 37.2968 20.2742 37.2968H26.0708C26.6302 37.2968 27.0852 37.7512 27.0852 38.3099C27.0852 38.8685 26.6302 39.323 26.0708 39.323Z" fill="#003D4C"></path><path d="M26.0708 46.27H20.2742C19.7148 46.27 19.2598 45.8156 19.2598 45.2569C19.2598 44.6983 19.7148 44.2438 20.2742 44.2438H26.0708C26.6302 44.2438 27.0852 44.6983 27.0852 45.2569C27.0852 45.8156 26.6302 46.27 26.0708 46.27Z" fill="#003D4C"></path><path d="M46.938 28.7664H26.0701C25.5107 28.7664 25.0557 28.312 25.0557 27.7533C25.0557 27.1947 25.5107 26.7402 26.0701 26.7402H46.938C47.4973 26.7402 47.9524 27.1947 47.9524 27.7533C47.9524 28.312 47.4973 28.7664 46.938 28.7664Z" fill="#003D4C"></path></g><defs><clipPath id="clip0_149_1053"><rect width="72" height="72" fill="white"></rect></clipPath></defs></svg>