<svg xmlns="http://www.w3.org/2000/svg" width="95" height="64" viewBox="0 0 95 64" fill="none"><g clip-path="url(#clip0_147_297)"><path d="M44.7921 46.9546H4.59008C2.05856 46.9546 0 44.8872 0 42.3448V4.60981C0 2.0674 2.05856 0 4.59008 0H63.8464C66.3779 0 68.4364 2.0674 68.4364 4.60981V6.93807C68.4364 7.6895 67.8278 8.30077 67.0796 8.30077C66.3314 8.30077 65.7227 7.6895 65.7227 6.93807V4.60981C65.7227 3.57026 64.8815 2.72539 63.8464 2.72539H4.59008C3.55499 2.72539 2.71373 3.57026 2.71373 4.60981V42.3487C2.71373 43.3882 3.55499 44.2331 4.59008 44.2331H44.7921C45.5403 44.2331 46.1489 44.8444 46.1489 45.5958C46.1489 46.3472 45.5403 46.9585 44.7921 46.9585V46.9546Z" fill="#003D4C"></path><path d="M44.7922 63.6301H16.1352C15.387 63.6301 14.7783 63.0189 14.7783 62.2674C14.7783 57.2605 18.8373 53.1841 23.8228 53.1841H44.7922C45.5404 53.1841 46.1491 53.7953 46.1491 54.5468C46.1491 55.2982 45.5404 55.9095 44.7922 55.9095H23.8228C20.7989 55.9095 18.2597 58.0508 17.6394 60.9047H44.7922C45.5404 60.9047 46.1491 61.516 46.1491 62.2674C46.1491 63.0189 45.5404 63.6301 44.7922 63.6301Z" fill="#003D4C"></path><path d="M27.6257 55.9095C27.5172 55.9095 27.4047 55.8978 27.2923 55.8667C26.5674 55.6837 26.1254 54.9439 26.3076 54.212L28.5484 45.2571C28.7306 44.529 29.4672 44.0852 30.196 44.2682C30.921 44.4511 31.3629 45.1909 31.1807 45.9229L28.9399 54.8777C28.7849 55.4968 28.2305 55.9095 27.6257 55.9095Z" fill="#003D4C"></path><path d="M39.7443 51.654C39.1356 51.654 38.5851 51.2413 38.43 50.6222L37.2554 45.9229C37.0732 45.1909 37.5151 44.4511 38.2401 44.2682C38.965 44.0852 39.7055 44.529 39.8877 45.2571L41.0624 49.9564C41.2446 50.6884 40.8026 51.4282 40.0777 51.6111C39.9652 51.6384 39.8567 51.654 39.7443 51.654Z" fill="#003D4C"></path><path d="M71.0221 64H52.8168C50.828 64 49.2114 62.3764 49.2114 60.3791V17.1778C49.2114 15.1804 50.828 13.5569 52.8168 13.5569H82.5671C84.5558 13.5569 86.1725 15.1804 86.1725 17.1778V26.4402C86.1725 27.1916 85.5638 27.8029 84.8156 27.8029C84.0674 27.8029 83.4587 27.1916 83.4587 26.4402V17.1778C83.4587 16.6833 83.0594 16.2823 82.5671 16.2823H52.8168C52.3245 16.2823 51.9252 16.6833 51.9252 17.1778V60.3791C51.9252 60.8736 52.3245 61.2746 52.8168 61.2746H71.0221C71.7703 61.2746 72.3789 61.8859 72.3789 62.6373C72.3789 63.3887 71.7703 64 71.0221 64Z" fill="#003D4C"></path><path d="M91.3014 64H78.0002C75.961 64 74.3057 62.3336 74.3057 60.2896V34.3283C74.3057 32.2803 75.9649 30.6178 78.0002 30.6178H91.3014C93.3406 30.6178 94.9959 32.2842 94.9959 34.3283V60.2896C94.9959 62.3375 93.3367 64 91.3014 64ZM78.0002 33.3432C77.4575 33.3432 77.0194 33.7871 77.0194 34.3283V60.2896C77.0194 60.8346 77.4613 61.2746 78.0002 61.2746H91.3014C91.8441 61.2746 92.2822 60.8307 92.2822 60.2896V34.3283C92.2822 33.7832 91.8402 33.3432 91.3014 33.3432H78.0002Z" fill="#003D4C"></path></g><defs><clipPath id="clip0_147_297"><rect width="95" height="64" fill="white"></rect></clipPath></defs></svg>