<svg xmlns="http://www.w3.org/2000/svg" width="86" height="60" viewBox="0 0 86 60" fill="none"><g clip-path="url(#clip0_147_268)"><path d="M12.0992 34.008C11.7929 34.008 11.4831 33.8934 11.2464 33.6608L5.56226 28.1167C5.32905 27.8875 5.19678 27.5751 5.19678 27.2487C5.19678 26.9224 5.32905 26.61 5.56226 26.3808L11.2464 20.8367C11.7267 20.368 12.4995 20.3749 12.9694 20.8575C13.4393 21.3366 13.4323 22.1073 12.9485 22.5759L8.15545 27.2487L12.9485 31.9215C13.4289 32.3902 13.4393 33.1609 12.9694 33.64C12.7292 33.883 12.4159 34.0045 12.0992 34.0045V34.008Z" fill="#003D4C"></path><path d="M25.0271 34.008C24.7103 34.008 24.3936 33.8865 24.1569 33.6434C23.6869 33.1644 23.6939 32.3937 24.1777 31.925L28.9708 27.2522L24.1777 22.5794C23.6974 22.1107 23.6869 21.34 24.1569 20.8609C24.6268 20.3819 25.3995 20.3714 25.8798 20.8401L31.564 26.3843C31.7972 26.6134 31.9295 26.9259 31.9295 27.2522C31.9295 27.5785 31.7972 27.891 31.564 28.1201L25.8798 33.6643C25.6432 33.8969 25.3368 34.0114 25.0271 34.0114V34.008Z" fill="#003D4C"></path><path d="M14.9606 37.0526C14.8039 37.0526 14.6403 37.0213 14.4872 36.9554C13.8676 36.695 13.5787 35.9799 13.8398 35.3619L21.1077 18.1913C21.3687 17.5733 22.0858 17.2852 22.7053 17.5456C23.3249 17.8059 23.6138 18.5211 23.3528 19.139L16.0849 36.3097C15.8899 36.7749 15.4374 37.0526 14.9606 37.0526Z" fill="#003D4C"></path><path d="M50.9832 59.5834H6.21322C2.78812 59.5834 0 56.8026 0 53.3866V6.19684C0 2.78077 2.78812 0 6.21322 0H67.5692C70.9943 0 73.7824 2.78077 73.7824 6.19684V16.5909C73.7824 17.2609 73.2359 17.8059 72.5641 17.8059C71.8923 17.8059 71.3459 17.2609 71.3459 16.5909V6.19684C71.3459 4.12081 69.6507 2.43013 67.5692 2.43013H6.21322C4.1317 2.43013 2.43656 4.12081 2.43656 6.19684V53.39C2.43656 55.4661 4.1317 57.1567 6.21322 57.1567H50.9832C51.655 57.1567 52.2015 57.7018 52.2015 58.3718C52.2015 59.0418 51.655 59.5869 50.9832 59.5869V59.5834Z" fill="#003D4C"></path><path d="M72.2228 14.4211H1.55568C0.883887 14.4211 0.337402 13.8761 0.337402 13.206C0.337402 12.536 0.883887 11.991 1.55568 11.991H72.2263C72.8981 11.991 73.4445 12.536 73.4445 13.206C73.4445 13.8761 72.8981 14.4211 72.2263 14.4211H72.2228Z" fill="#003D4C"></path><path d="M46.6811 28.4673H36.8374C36.1656 28.4673 35.6191 27.9222 35.6191 27.2522C35.6191 26.5822 36.1656 26.0371 36.8374 26.0371H46.6811C47.3529 26.0371 47.8994 26.5822 47.8994 27.2522C47.8994 27.9222 47.3529 28.4673 46.6811 28.4673Z" fill="#003D4C"></path><path d="M41.7556 50.4912H9.11965C8.44785 50.4912 7.90137 49.9462 7.90137 49.2762C7.90137 48.6061 8.44785 48.0611 9.11965 48.0611H41.7556C42.4274 48.0611 42.9739 48.6061 42.9739 49.2762C42.9739 49.9462 42.4274 50.4912 41.7556 50.4912Z" fill="#003D4C"></path><path d="M27.3867 8.38396H24.1426C23.4708 8.38396 22.9243 7.83892 22.9243 7.16889C22.9243 6.49887 23.4708 5.95383 24.1426 5.95383H27.3867C28.0585 5.95383 28.605 6.49887 28.605 7.16889C28.605 7.83892 28.0585 8.38396 27.3867 8.38396Z" fill="#003D4C"></path><path d="M18.9529 8.38396H15.4756C14.8038 8.38396 14.2573 7.83892 14.2573 7.16889C14.2573 6.49887 14.8038 5.95383 15.4756 5.95383H18.9529C19.6247 5.95383 20.1712 6.49887 20.1712 7.16889C20.1712 7.83892 19.6247 8.38396 18.9529 8.38396Z" fill="#003D4C"></path><path d="M10.1394 8.38396H7.42433C6.75254 8.38396 6.20605 7.83892 6.20605 7.16889C6.20605 6.49887 6.75254 5.95383 7.42433 5.95383H10.1394C10.8111 5.95383 11.3576 6.49887 11.3576 7.16889C11.3576 7.83892 10.8111 8.38396 10.1394 8.38396Z" fill="#003D4C"></path><path d="M63.8693 60C63.751 60 63.6326 59.9826 63.5143 59.9479L58.9927 58.5801C58.3871 58.3961 58.0216 57.7816 58.1539 57.1637L58.77 54.2649C57.4299 53.5046 56.2185 52.5568 55.1569 51.4355L52.2748 52.6714C51.6935 52.9214 51.0182 52.6853 50.7189 52.1298L48.4912 47.9743C48.1918 47.4188 48.3728 46.7245 48.9019 46.3808L51.3942 44.7665C50.9834 43.2807 50.7989 41.7566 50.8442 40.2187L47.9308 39.0592C47.3425 38.8266 47.0327 38.1809 47.2172 37.5768L48.5886 33.0672C48.7731 32.4631 49.3892 32.0986 50.0088 32.2305L52.9153 32.845C53.6776 31.5084 54.6278 30.3003 55.7521 29.2414L54.5129 26.3669C54.2623 25.7872 54.499 25.1137 55.056 24.8151L59.2225 22.5933C59.7794 22.2947 60.4755 22.4753 60.8201 23.0029L62.4387 25.4886C63.9285 25.079 65.4566 24.895 67.002 24.9401L68.1646 22.0344C68.3978 21.4477 69.0418 21.1387 69.6509 21.3227L74.1725 22.6905C74.7781 22.8745 75.1436 23.489 75.0114 24.1069L74.3952 27.0057C75.7354 27.766 76.9467 28.7138 78.0083 29.8351L80.8904 28.5992C81.4717 28.3492 82.147 28.5853 82.4463 29.1442L84.674 33.2998C84.9734 33.8552 84.7924 34.5496 84.2633 34.8932L81.7711 36.5075C82.1818 37.9934 82.3663 39.5174 82.321 41.0554L85.2344 42.2149C85.8227 42.4475 86.1325 43.0932 85.948 43.6973L84.5766 48.2069C84.3921 48.811 83.776 49.1755 83.1564 49.0436L80.2499 48.4291C79.4877 49.7657 78.5374 50.9738 77.4131 52.0326L78.6523 54.9071C78.9029 55.4869 78.6662 56.1604 78.1058 56.4589L73.9393 58.6808C73.3823 58.9793 72.6862 58.7988 72.3416 58.2711L70.723 55.7854C69.2332 56.1951 67.7052 56.3791 66.1597 56.334L64.9971 59.2397C64.8091 59.7119 64.3532 60.0035 63.8658 60.0035L63.8693 60ZM60.7714 56.5804L63.1523 57.2991L64.2244 54.619C64.4228 54.1225 64.9275 53.8136 65.46 53.8587C67.2909 54.0149 69.1079 53.7962 70.8518 53.2026C71.3809 53.022 71.9622 53.2234 72.265 53.6921L73.7757 56.0111L75.9686 54.8412L74.8234 52.1889C74.6111 51.6959 74.7468 51.1231 75.1575 50.7794C76.5673 49.5956 77.695 48.1583 78.5061 46.5128C78.7532 46.0128 79.3067 45.7455 79.8531 45.8601L82.5647 46.4329L83.2852 44.0583L80.598 42.9891C80.1003 42.7912 79.7905 42.2913 79.8357 41.7566C79.9924 39.9306 79.7731 38.1184 79.1779 36.3791C78.9969 35.8514 79.1987 35.2717 79.6687 34.9696L81.9938 33.4629L80.8208 31.2758L78.1615 32.418C77.6672 32.6297 77.0929 32.4944 76.7483 32.0847C75.5613 30.6787 74.1237 29.5539 72.4704 28.745C71.9691 28.4985 71.7011 27.9465 71.816 27.4015L72.3903 24.6971L70.0094 23.9785L68.9374 26.6586C68.739 27.155 68.2377 27.464 67.7017 27.4188C65.8708 27.2626 64.0538 27.4848 62.3099 28.075C61.7808 28.2555 61.1996 28.0542 60.8967 27.5855L59.3861 25.2664L57.1932 26.4364L58.3383 29.0887C58.5507 29.5817 58.4149 30.1545 58.0042 30.4982C56.5945 31.682 55.4667 33.1192 54.6557 34.7648C54.4085 35.2647 53.8551 35.532 53.3086 35.4175L50.5971 34.8446L49.8765 37.2192L52.5637 38.2885C53.0615 38.4864 53.3712 38.9863 53.326 39.5209C53.1694 41.347 53.3921 43.1592 53.9839 44.8985C54.1649 45.4261 53.963 46.0059 53.4931 46.3079L51.1679 47.8146L52.3409 50.0017L55.0003 48.8596C55.4945 48.6478 56.0689 48.7832 56.4135 49.1928C57.6004 50.5989 59.038 51.7237 60.6914 52.5325C61.1926 52.779 61.4606 53.331 61.3457 53.8761L60.7679 56.5804H60.7714Z" fill="#003D4C"></path><path d="M66.5772 49.7587C65.7 49.7587 64.8089 49.6303 63.9283 49.3664C59.1004 47.9083 56.3645 42.8016 57.8299 37.9899C58.54 35.657 60.1168 33.7407 62.2714 32.5916C64.426 31.4424 66.9009 31.1994 69.2365 31.9076C74.0643 33.3657 76.8002 38.469 75.3348 43.2841C74.1374 47.2175 70.5 49.7587 66.5772 49.7587ZM66.5737 33.942C65.4842 33.942 64.4051 34.2093 63.4201 34.737C61.8398 35.5806 60.6842 36.9866 60.162 38.6981C59.09 42.2288 61.0949 45.9746 64.6349 47.0439C68.1748 48.1132 71.9306 46.1135 73.0027 42.5829C74.0748 39.0522 72.0699 35.3064 68.5299 34.2371C67.8859 34.0427 67.2281 33.9455 66.5737 33.9455V33.942Z" fill="#003D4C"></path></g><defs><clipPath id="clip0_147_268"><rect width="86" height="60" fill="white"></rect></clipPath></defs></svg>