<svg xmlns="http://www.w3.org/2000/svg" width="84" height="87" viewBox="0 0 84 87" fill="none"><g clip-path="url(#clip0_147_330)"><path d="M73.0337 66.4748H5.43935C2.43773 66.4748 0 64.0409 0 61.0519V21.3458C0 18.3533 2.44123 15.9229 5.43935 15.9229H23.9605C24.6364 15.9229 25.1863 16.4712 25.1863 17.1451C25.1863 17.819 24.6364 18.3673 23.9605 18.3673H5.43935C3.78968 18.3673 2.45174 19.7046 2.45174 21.3458V61.0484C2.45174 62.6931 3.79319 64.027 5.43935 64.027H73.0302C74.6799 64.027 76.0213 62.6896 76.0213 61.0484V34.7406C76.0213 34.0667 76.5712 33.5185 77.2472 33.5185C77.9232 33.5185 78.4731 34.0667 78.4731 34.7406V61.0484C78.4731 64.041 76.0318 66.4713 73.0302 66.4713L73.0337 66.4748Z" fill="#003D4C"></path><path d="M58.3444 18.3673H46.4114C45.7354 18.3673 45.1855 17.819 45.1855 17.1451C45.1855 16.4712 45.7354 15.9229 46.4114 15.9229H58.3444C59.0203 15.9229 59.5702 16.4712 59.5702 17.1451C59.5702 17.819 59.0203 18.3673 58.3444 18.3673Z" fill="#003D4C"></path><path d="M26.829 77.6383C26.7484 77.6383 26.6714 77.6313 26.5908 77.6139C25.9254 77.4812 25.4946 76.8387 25.6276 76.1787L26.9936 69.2892C27.1267 68.6258 27.7712 68.1963 28.4331 68.329C29.0986 68.4617 29.5294 69.1042 29.3963 69.7641L28.0303 76.6536C27.9148 77.2367 27.4034 77.6383 26.829 77.6383Z" fill="#003D4C"></path><path d="M51.6475 77.6383C51.0731 77.6383 50.5617 77.2367 50.4461 76.6536L49.0801 69.7641C48.9471 69.1006 49.3814 68.4581 50.0433 68.3289C50.7088 68.1963 51.3533 68.6292 51.4828 69.2892L52.8488 76.1787C52.9819 76.8421 52.5476 77.4846 51.8856 77.6138C51.8051 77.6313 51.7245 77.6383 51.6475 77.6383Z" fill="#003D4C"></path><path d="M68.0674 87H10.406C9.73007 87 9.18018 86.4518 9.18018 85.7778V81.5247C9.18018 78.3786 11.7475 75.8225 14.8997 75.8225H63.5737C66.7294 75.8225 69.2933 78.3821 69.2933 81.5247V85.7778C69.2933 86.4518 68.7434 87 68.0674 87ZM11.6319 84.5557H66.8415V81.5247C66.8415 79.7264 65.374 78.2668 63.5737 78.2668H14.8997C13.096 78.2668 11.6319 79.7299 11.6319 81.5247V84.5557Z" fill="#003D4C"></path><path d="M40.562 39.3674C39.886 39.3674 39.3362 38.8191 39.3362 38.1452V2.44431H30.9932V29.7089C30.9932 30.3828 30.4434 30.931 29.7674 30.931C29.0914 30.931 28.5415 30.3828 28.5415 29.7089V1.22216C28.5415 0.548224 29.0914 0 29.7674 0H40.562C41.238 0 41.7879 0.548224 41.7879 1.22216V38.1452C41.7879 38.8191 41.238 39.3674 40.562 39.3674Z" fill="#003D4C"></path><path d="M40.5618 8.59H36.4324C35.7564 8.59 35.2065 8.04178 35.2065 7.36785C35.2065 6.69391 35.7564 6.14569 36.4324 6.14569H40.5618C41.2378 6.14569 41.7877 6.69391 41.7877 7.36785C41.7877 8.04178 41.2378 8.59 40.5618 8.59Z" fill="#003D4C"></path><path d="M40.5618 16.8518H36.4324C35.7564 16.8518 35.2065 16.3036 35.2065 15.6296C35.2065 14.9557 35.7564 14.4075 36.4324 14.4075H40.5618C41.2378 14.4075 41.7877 14.9557 41.7877 15.6296C41.7877 16.3036 41.2378 16.8518 40.5618 16.8518Z" fill="#003D4C"></path><path d="M40.5618 25.117H36.4324C35.7564 25.117 35.2065 24.5688 35.2065 23.8949C35.2065 23.221 35.7564 22.6727 36.4324 22.6727H40.5618C41.2378 22.6727 41.7877 23.221 41.7877 23.8949C41.7877 24.5688 41.2378 25.117 40.5618 25.117Z" fill="#003D4C"></path><path d="M40.5618 33.3788H36.4324C35.7564 33.3788 35.2065 32.8306 35.2065 32.1567C35.2065 31.4827 35.7564 30.9345 36.4324 30.9345H40.5618C41.2378 30.9345 41.7877 31.4827 41.7877 32.1567C41.7877 32.8306 41.2378 33.3788 40.5618 33.3788Z" fill="#003D4C"></path><path d="M51.0487 60.6189H11.7474C11.0714 60.6189 10.5215 60.0707 10.5215 59.3968V19.6592C10.5215 19.1634 10.8227 18.7164 11.2815 18.5279C11.7438 18.3393 12.2692 18.4476 12.6195 18.8002L51.9208 58.5378C52.2676 58.8869 52.3691 59.4142 52.18 59.8682C51.9909 60.3221 51.5425 60.6189 51.0487 60.6189ZM12.9732 58.1746H48.1206L12.9732 22.6378V58.1746Z" fill="#003D4C"></path><path d="M33.7674 53.0869H18.7698C18.0938 53.0869 17.5439 52.5387 17.5439 51.8648V37.3595C17.5439 36.8672 17.8382 36.4237 18.2935 36.2352C18.7488 36.0431 19.2707 36.1409 19.6244 36.4831L34.622 50.9883C34.9793 51.334 35.0914 51.8648 34.9057 52.3257C34.7166 52.7866 34.2683 53.0904 33.7709 53.0904L33.7674 53.0869ZM19.9957 50.6426H30.7413L19.9957 40.2473V50.6426Z" fill="#003D4C"></path><path d="M66.929 27.7639C66.0464 27.7639 65.2198 27.4217 64.5964 26.7966L61.7313 23.9368C61.1079 23.3152 60.7646 22.4877 60.7646 21.6077C60.7646 20.7278 61.1079 19.9037 61.7348 19.2821L71.2861 9.77375C71.9095 9.1522 72.7361 8.81 73.6188 8.81C74.5014 8.81 75.328 9.1522 75.9514 9.77725L78.8164 12.6371C79.4399 13.2586 79.7831 14.0862 79.7831 14.9662C79.7831 15.8461 79.4399 16.6702 78.8164 17.2918L69.2652 26.8001C68.6417 27.4217 67.8151 27.7639 66.9325 27.7639H66.929ZM73.6152 11.2613C73.3876 11.2613 73.1739 11.3486 73.0163 11.5092L63.4651 21.0176C63.3039 21.1782 63.2164 21.3912 63.2164 21.6147C63.2164 21.8382 63.3039 22.0547 63.4651 22.2118L66.3301 25.0716C66.4912 25.2323 66.7049 25.3196 66.929 25.3196C67.1567 25.3196 67.3703 25.2323 67.5279 25.0716L77.0792 15.5633C77.4119 15.235 77.4119 14.6973 77.0792 14.3656L74.2142 11.5057C74.0531 11.3451 73.8394 11.2578 73.6152 11.2578V11.2613Z" fill="#003D4C"></path><path d="M42.916 47.4196C42.5973 47.4196 42.282 47.2939 42.0474 47.0635C41.7006 46.7178 41.592 46.1975 41.7777 45.7435L43.3258 41.892C44.9684 37.8065 47.3221 34.2203 50.3167 31.2418L58.3934 23.2035C58.8733 22.7251 59.6473 22.7286 60.1272 23.2035C60.607 23.6819 60.6035 24.4536 60.1272 24.932L52.0505 32.9703C49.2905 35.7149 47.1225 39.0217 45.6059 42.7999L45.1225 44.0011L46.3939 43.4913C50.1626 41.9828 53.4655 39.8353 56.2079 37.1011L64.3687 28.9756C64.8485 28.4972 65.6226 28.5007 66.1024 28.9756C66.5822 29.4539 66.5787 30.2256 66.1024 30.704L57.9416 38.8296C54.961 41.7942 51.385 44.1268 47.3081 45.7575L43.3748 47.3288C43.2277 47.3882 43.0736 47.4161 42.9195 47.4161L42.916 47.4196Z" fill="#003D4C"></path><path d="M70.9884 31.3815C70.6732 31.3815 70.3615 31.2627 70.1198 31.0218C69.64 30.5434 69.6435 29.7717 70.1198 29.2933L77.1528 22.2921C78.2 21.248 78.2035 19.551 77.1528 18.5034L76.8341 18.1822C76.3542 17.7038 76.3577 16.9321 76.8341 16.4537C77.3139 15.9788 78.0914 15.9788 78.5678 16.4537L78.8865 16.7715C80.8864 18.7688 80.8864 22.0197 78.8795 24.0136L71.8465 31.0148C71.6084 31.2523 71.2931 31.371 70.9814 31.371L70.9884 31.3815Z" fill="#003D4C"></path><path d="M80.7954 12.2425C80.4801 12.2425 80.1684 12.1238 79.9267 11.8829C79.4469 11.4045 79.4504 10.6328 79.9267 10.1544L81.4643 8.62494L79.9793 7.14089L78.228 8.88334C77.7482 9.36172 76.9741 9.35823 76.4943 8.88334C76.0145 8.40844 76.018 7.63325 76.4943 7.15486L78.2561 5.40194C79.2227 4.43818 80.6412 4.3439 81.4853 5.18544L83.4257 7.12343C83.7935 7.49008 83.9966 7.9964 83.9966 8.54113C83.9966 9.19062 83.7059 9.84709 83.2051 10.3464L81.6605 11.8829C81.4223 12.1203 81.1071 12.239 80.7954 12.239V12.2425Z" fill="#003D4C"></path><path d="M54.0154 41.5742C53.7002 41.5742 53.3885 41.4555 53.1503 41.2146L47.8721 35.9523C47.3922 35.4739 47.3922 34.7022 47.8721 34.2238C48.3519 33.7455 49.126 33.7455 49.6058 34.2238L54.8841 39.4861C55.3639 39.9645 55.3639 40.7362 54.8841 41.2146C54.6459 41.452 54.3307 41.5707 54.0189 41.5707L54.0154 41.5742Z" fill="#003D4C"></path></g><defs><clipPath id="clip0_147_330"><rect width="84" height="87" fill="white"></rect></clipPath></defs></svg>